<svg width="40" height="40" viewBox="0 0 40 40" fill="none" xmlns="http://www.w3.org/2000/svg">
<rect width="40" height="40" rx="4" fill="white"/>
<g clip-path="url(#clip0_29_1986)">
<path fill-rule="evenodd" clip-rule="evenodd" d="M29.4487 34.8339C29.808 34.3848 30.2167 33.974 30.6123 33.5263C30.7578 33.3591 31.1171 33.0659 30.88 32.7145C30.6633 32.3944 30.2778 32.5247 30.08 32.7528C29.6945 33.1976 29.3178 33.6014 28.9352 34.0391C28.7534 34.246 27.9127 35.2121 27.7687 35.2844C27.7425 34.0405 27.7513 32.7585 27.7629 31.5118C27.7745 30.3558 26.9731 30.7553 26.8814 31.0188C26.8 31.2511 26.8465 34.236 26.8465 34.7319C26.8465 35.6768 26.5716 37.1402 27.4196 36.9532C27.7411 36.8824 28.3462 35.9077 28.8073 35.5564C29.3571 35.7731 30.2793 37.4561 30.8494 36.8215C31.2262 36.4021 30.5382 35.9247 30.3476 35.7349C30.1483 35.5394 29.5505 35.0124 29.4487 34.8339ZM12.0873 34.8339C12.4174 34.4259 12.8625 33.923 13.2451 33.5263C14.0742 32.6664 13.1854 32.2357 12.7171 32.7556C12.4276 33.0786 10.5847 35.181 10.4029 35.2801C10.3694 34.0434 10.3913 32.7528 10.4 31.5118C10.4014 31.193 10.4087 30.8984 10.1396 30.7822C9.8938 30.6774 9.60143 30.7865 9.51707 31.0188C9.4487 31.2115 9.48216 34.2743 9.48216 34.7319C9.48216 35.6782 9.2087 37.1416 10.0509 36.956C10.3491 36.8895 11.0414 35.8822 11.44 35.5635C11.9433 35.7165 12.912 37.4689 13.4836 36.8243C13.9883 36.2534 12.592 35.5606 12.0873 34.8339ZM6.00289 33.4498C6.78834 33.267 7.4618 33.8195 7.61452 34.4174C7.81816 35.2107 7.2727 35.8751 6.6458 36.0352C4.90325 36.4829 4.1367 33.8861 6.00289 33.4498ZM7.61016 36.6019C7.77889 36.7535 7.69452 36.8399 7.9258 36.9305C8.06107 36.9844 8.2327 36.9759 8.36507 36.898C8.64289 36.7322 8.56871 36.3214 8.57016 35.9573C8.57307 35.2277 8.6487 34.4443 8.37089 33.8365C7.93161 32.8775 6.5847 32.0714 5.23052 32.7712C3.39052 33.7204 3.6698 36.3724 5.70034 36.9008C6.69089 37.1586 7.20434 36.7138 7.61016 36.6019ZM23.2974 33.454C24.1105 33.2019 24.8 33.8252 24.9673 34.3777C25.2145 35.1909 24.6254 35.851 24.0538 36.0196C22.3563 36.5211 21.4633 34.0207 23.2974 33.454ZM24.9774 36.5764C25.1171 36.7648 25.264 37.1317 25.6989 36.9192C26.0043 36.7705 25.9331 36.3554 25.9316 35.9573C25.9316 35.2447 26.0102 34.4344 25.7396 33.838C25.2887 32.8449 23.8836 32.0714 22.56 32.784C21.6131 33.2954 20.8814 34.654 21.7076 35.9233C22.0073 36.3823 22.5018 36.769 23.1025 36.9121C23.9171 37.1048 24.4247 36.854 24.9774 36.5764ZM31.8822 35.2419C32.0858 36.8937 34.352 37.6247 35.5098 36.2505C36.1251 35.5181 35.9869 34.8027 35.9869 33.709C35.9869 33.2132 36.0931 32.6465 35.6669 32.5403C34.3563 32.2159 35.7891 35.1795 34.5294 35.9105C33.6931 36.395 32.8043 35.8156 32.7913 34.8877C32.7782 33.8337 33.0327 32.2159 32.1411 32.5559C31.7643 32.7004 31.8691 33.301 31.8691 33.76C31.8691 34.1921 31.8327 34.8353 31.8822 35.2419ZM18.5847 35.3453C18.6662 34.9585 18.6254 34.297 18.6254 33.862C18.6254 33.4427 18.736 32.7755 18.4131 32.587C18.192 32.4595 17.9447 32.5275 17.8211 32.6692C17.3963 33.1551 18.1542 35.205 17.2582 35.8496C16.9513 36.072 16.4858 36.1783 16.0538 35.9559C14.6458 35.2334 16.1062 32.5091 14.9571 32.5247C14.4043 32.5318 14.5134 33.124 14.5134 33.607C14.5134 34.5874 14.3709 35.5025 14.9294 36.1868C16.0436 37.5525 18.2298 37.0453 18.5847 35.3453ZM19.552 36.6217C19.6451 37.0765 20.4334 37.1487 20.4669 36.4715L20.4436 31.1194C20.3534 30.608 19.5578 30.5584 19.5316 31.254L19.5403 34.8339C19.5403 35.2178 19.4909 36.32 19.552 36.6217Z" fill="#FF0000"/>
<path fill-rule="evenodd" clip-rule="evenodd" d="M20 3.01697C27.2305 3.01697 33.0909 8.72472 33.0909 15.767C33.0909 22.8092 27.2305 28.517 20 28.517C12.7694 28.517 6.90906 22.8092 6.90906 15.767C6.90906 8.72472 12.7694 3.01697 20 3.01697Z" fill="url(#paint0_radial_29_1986)"/>
<path fill-rule="evenodd" clip-rule="evenodd" d="M18.0044 18.3793C15.7659 17.9033 14.4117 15.8945 14.7957 13.6009C15.1317 11.5949 16.9237 10.2718 18.963 10.2604L19.7048 10.3454C21.4488 10.6798 22.8713 12.2112 22.9542 14.1846C22.9586 16.8593 20.7913 18.9701 18.0044 18.3793ZM13.3499 10.6557C9.90841 15.8336 14.6051 22.0457 20.4073 20.7806C20.8495 20.6843 21.2597 20.5539 21.6626 20.3797C21.8604 20.2947 22.0524 20.204 22.2401 20.1048C22.5993 19.8923 22.8495 19.7337 23.2524 19.4149C23.4415 19.2648 23.4939 19.1174 23.7644 19.0948C23.9521 19.1401 24.2139 20.0014 25.2321 19.9278C25.859 19.8824 26.3142 19.4078 26.451 18.8752L26.4524 18.2958C26.3506 17.2248 26.2531 16.1736 26.0641 15.1125C25.8241 13.7596 25.3615 11.8698 24.5964 10.7775C23.3571 9.0095 21.9593 8.25867 19.8779 7.85775C17.4124 7.4965 14.7142 8.60292 13.3499 10.6557ZM26.7157 10.5678C27.0531 11.7763 27.4008 13.1603 27.5666 14.4878L27.859 17.042C27.8953 17.8353 27.8386 18.2221 28.1237 18.895C28.4699 19.3951 29.3368 19.7903 30.0844 19.0749C31.2757 17.9345 29.491 10.7407 28.9237 9.17667C28.5222 8.07309 27.8066 6.11667 27.107 5.5755C26.7913 5.33184 25.8197 4.64617 25.1521 4.81475C24.3622 5.0145 25.0997 6.13084 25.2975 6.59692C25.7237 7.59992 26.5077 9.53509 26.7157 10.5678Z" fill="url(#paint1_linear_29_1986)"/>
</g>
<defs>
<radialGradient id="paint0_radial_29_1986" cx="0" cy="0" r="1" gradientUnits="userSpaceOnUse" gradientTransform="translate(32.5472 2.74343) rotate(-29.1181) scale(42.7747 42.1957)">
<stop stop-color="white"/>
<stop offset="0.219608" stop-color="#FF7F7F"/>
<stop offset="0.501961" stop-color="#FF0000"/>
<stop offset="1" stop-color="#FF0000"/>
</radialGradient>
<linearGradient id="paint1_linear_29_1986" x1="24.0713" y1="10.4885" x2="8.05458" y2="33.0335" gradientUnits="userSpaceOnUse">
<stop stop-color="white"/>
<stop offset="1" stop-color="#FF0000"/>
</linearGradient>
<clipPath id="clip0_29_1986">
<rect width="32" height="34" fill="white" transform="translate(4 3)"/>
</clipPath>
</defs>
</svg>
