<svg width="64" height="64" viewBox="0 0 64 64" fill="none" xmlns="http://www.w3.org/2000/svg">
<rect width="64" height="64" fill="white"/>
<path d="M56.7362 39.5612H4V40.6841H56.7362C58.3544 40.6841 59.7099 39.5107 59.9573 37.9906C59.232 38.947 58.0519 39.5612 56.7362 39.5612Z" fill="#EFCF00"/>
<path d="M59.9976 35.5705V34.6705H7.27121C5.47115 34.6705 4 36.123 4 37.9003V38.8004H56.7362C58.5395 38.8004 59.9976 37.3457 59.9976 35.5705Z" fill="#D60F27"/>
<path fill-rule="evenodd" clip-rule="evenodd" d="M19.8493 25.5967H20.4355L20.4354 25.5965C20.8954 25.5965 21.403 25.8043 21.403 26.468C21.403 27.1072 20.7594 27.263 20.4354 27.263H19.8492V31.2125C19.8492 31.8664 19.5216 32.4543 18.6803 32.4543C17.8558 32.4543 17.4377 31.8473 17.4377 31.1746V27.263H17.3789C16.9465 27.263 16.4078 27.0028 16.4078 26.435C16.4078 25.8713 16.8827 25.5965 17.3299 25.5965H17.4378V24.9386C17.4378 24.9386 17.379 24.0003 18.0521 23.485C18.7279 22.9556 19.7245 23.001 19.7245 23.001C19.7245 23.001 20.8239 22.9884 21.2584 23.4134C21.4618 23.6464 21.539 23.7785 21.539 24.0386C21.539 24.375 21.3883 24.796 20.7177 24.7345C20.0875 24.6639 19.8493 24.8338 19.8493 25.2372V25.5967ZM13.3449 24.4559C13.3449 23.5992 13.8028 23.0013 14.589 23.0013C15.3602 23.0013 15.8386 23.5992 15.8386 24.4559V25.0094V30.4408V31.01C15.8386 31.8476 15.3602 32.4545 14.589 32.4545C13.8028 32.4545 13.3449 31.8476 13.3449 31.01V30.4408V25.0094V24.4559ZM27.468 25.38C27.0648 25.38 26.7422 25.559 26.5311 25.8303C26.1432 25.5646 25.6321 25.38 25.0362 25.38C22.4968 25.38 21.3719 27.2632 21.3719 29.0814C21.3719 31.0281 22.7387 32.5341 25.0362 32.5341C25.5805 32.5341 26.1049 32.3551 26.528 32.0803C26.735 32.3586 27.0596 32.5341 27.468 32.5341C28.2578 32.5341 28.708 31.9336 28.708 31.086V26.8331C28.708 26.0001 28.2577 25.38 27.468 25.38ZM23.8382 28.9875C23.8382 27.4385 24.6001 27.1639 25.1117 27.1639H25.1756C25.7638 27.2093 26.227 27.596 26.227 29.0545C26.227 30.4896 25.7251 30.7771 25.2046 30.8057H25.1259C24.5417 30.8057 23.838 30.5309 23.838 28.9875H23.8382ZM10.0507 24.0306C10.1549 24.309 12.2531 30.2102 12.3825 30.5934H12.3826C12.5221 30.9681 12.6105 31.4269 12.3826 31.801C12.1719 32.1514 11.765 32.4554 11.2325 32.4554C10.7264 32.4554 10.2536 32.2327 10.0558 31.6075C9.85799 30.9681 9.76037 30.6555 9.76037 30.6555H8.25875H6.76521C6.76521 30.6555 6.66248 30.9681 6.46621 31.6075C6.26478 32.2326 5.80318 32.4554 5.28281 32.4554C4.76965 32.4554 4.37261 32.1514 4.13188 31.801C3.91261 31.4269 4.01432 30.9681 4.13188 30.5934C4.20646 30.3959 4.80038 28.7313 5.37284 27.1269C5.91064 25.6196 6.42948 24.1654 6.48098 24.0306C6.59087 23.7509 6.69718 23.5482 6.94661 23.3732C7.37339 23.0581 8.25875 23.0783 8.25875 23.0783C8.25875 23.0783 9.15622 23.0596 9.57534 23.3732C9.82886 23.5481 9.93517 23.7508 10.0507 24.0306ZM8.25875 25.6301L7.32938 28.6229H9.19093L8.25875 25.6301Z" fill="#1756C2"/>
<path fill-rule="evenodd" clip-rule="evenodd" d="M58.0462 26.3395C58.9534 26.3395 59.6292 26.278 59.9041 26.1842L60 26.1393V26.2482C59.9893 26.6838 59.6882 27.5082 58.6129 27.488C58.5298 27.488 58.446 27.4872 58.3585 27.4863C58.2628 27.4854 58.1626 27.4844 58.0543 27.4844C57.9041 27.4844 57.7744 27.4858 57.6761 27.4869C57.6162 27.4875 57.568 27.488 57.5339 27.488C57.5178 27.5654 57.4835 27.7151 57.441 27.9006C57.3475 28.3089 57.2142 28.8904 57.1475 29.2557C57.0856 29.5921 56.8991 30.6383 57.1884 30.9312C57.3187 31.0396 57.4577 31.1067 57.6228 31.1067C57.7802 31.1067 57.9326 31.0684 58.1263 31.0124C58.5599 30.8677 58.8107 30.6674 58.8845 30.6084C58.8982 30.5975 58.9058 30.5914 58.9074 30.5914L58.9805 30.5243L59.0213 30.6096C59.0213 30.6113 59.0256 30.6193 59.0327 30.6327C59.0627 30.6895 59.1442 30.8437 59.1731 31.0306C59.2391 31.3523 59.1292 31.6563 58.8798 31.8691C58.3084 32.3576 57.4584 32.5129 56.8756 32.5129C55.626 32.5129 54.9738 31.9306 54.9738 30.7557C54.9738 29.3552 55.7461 26.4247 55.7615 26.3945C55.9031 25.8454 56.2322 24.368 55.9286 24.0615L55.8274 23.9707L55.945 23.9354C55.9758 23.9213 56.7674 23.6788 57.3173 23.6788C57.7094 23.6788 57.9675 23.764 58.1249 23.9541C58.2849 24.1528 58.2977 24.4599 58.1858 24.834C58.0079 25.4541 57.8438 26.1081 57.8029 26.3395H58.0462ZM36.3927 27.7511C36.8526 27.0693 38.1498 25.3071 39.4839 25.3071L39.4893 25.3021C39.8537 25.3021 40.1159 25.3873 40.2897 25.6112C40.6178 25.9984 40.4967 26.6816 40.4164 27.0557L40.4062 27.1167C40.3858 27.1996 40.3631 27.3192 40.3355 27.4646L40.3355 27.4647C40.3115 27.5916 40.2837 27.7384 40.2503 27.8977C40.1001 28.5795 39.9007 29.5173 39.7464 30.3326C39.5286 31.5488 39.9723 31.9612 39.9723 31.9612L40.0561 32.0172L39.9646 32.0787L39.9537 32.0854C39.8674 32.1389 39.3213 32.478 38.7334 32.478C38.3745 32.478 38.0791 32.3535 37.8905 32.1402C37.658 31.8759 37.6063 31.4116 37.7126 30.792C37.8905 29.7543 38.2151 28.2628 38.398 27.5413C38.4169 27.4144 38.4388 27.3148 38.453 27.2501L38.453 27.2501C38.4605 27.2164 38.4658 27.1921 38.4676 27.1783C38.4778 27.0704 38.4676 26.9812 38.442 26.9559C38.4216 26.9257 38.4165 26.9257 38.4062 26.9257C38.3735 26.9257 38.3183 26.9353 38.21 27.0104C37.8894 27.2473 36.6566 28.8759 35.7439 30.9603C35.4105 31.7048 35.5844 32.0593 35.6273 32.1467C35.6327 32.1577 35.636 32.1645 35.636 32.1673L35.7112 32.2343L35.6105 32.2747C35.6081 32.2751 35.5991 32.2783 35.5842 32.2836L35.5841 32.2836C35.4733 32.3231 35.0352 32.4789 34.5474 32.4789C34.1942 32.4789 33.9448 32.3796 33.7904 32.2076C33.6356 31.9999 33.6039 31.6873 33.699 31.2845C33.7167 31.1927 33.7431 31.0911 33.7727 30.9775L33.7727 30.9775C33.7962 30.8876 33.8216 30.7902 33.8462 30.684L33.9199 30.386L33.9199 30.386L33.9199 30.386C34.1763 29.3523 34.518 27.9741 34.6096 27.1176C34.6147 27.0566 34.6096 26.9901 34.5789 26.975C34.5789 26.9598 34.5636 26.9397 34.5329 26.9397C34.5018 26.9397 34.4746 26.9553 34.441 26.9745C34.4233 26.9846 34.4039 26.9958 34.3811 27.0062C34.1022 27.1903 33.1039 28.2693 31.8691 30.979C31.5231 31.7264 31.7516 32.1313 31.7782 32.1784C31.7798 32.1812 31.7806 32.1827 31.7806 32.183L31.843 32.2622L31.7643 32.2823C31.7372 32.3076 31.2531 32.483 30.7206 32.483C30.3387 32.483 30.0325 32.3585 29.8644 32.1412C29.7049 31.9279 29.6865 31.6063 29.8076 31.2125L29.8333 31.1184C30.0593 30.2914 30.5674 28.4315 30.793 26.8617C30.93 25.933 30.7521 25.7575 30.7521 25.7575L30.6315 25.6874L30.7634 25.6289C30.7682 25.6289 30.7925 25.6204 30.8326 25.6065C31.018 25.5418 31.5402 25.3597 32.0182 25.3597C32.3738 25.3597 32.6248 25.454 32.7771 25.6637C33.0118 25.9759 32.8965 26.4934 32.8135 26.8656C32.8062 26.8986 32.799 26.9306 32.7924 26.9611C32.7579 27.073 32.7118 27.2418 32.6661 27.409L32.6661 27.409L32.6661 27.4092L32.666 27.4094C32.6461 27.4824 32.6262 27.5551 32.6074 27.6226C33.1292 26.8619 34.3498 25.3072 35.5851 25.3072C35.9439 25.3072 36.2112 25.4121 36.3927 25.6289C36.7024 26.0036 36.6181 26.6393 36.521 27.088C36.4474 27.3589 36.4131 27.5958 36.3927 27.7511ZM46.3826 25.6815C46.5932 25.4799 46.9014 25.38 47.2802 25.38L47.281 25.3805C47.8756 25.3805 48.4735 25.6194 48.524 25.6396L48.5266 25.6407L48.5895 25.681L48.5537 25.7395C48.5537 25.7412 48.5467 25.7564 48.5339 25.7844L48.5339 25.7845L48.5338 25.7846C48.4141 26.0458 47.7867 27.4151 47.5504 29.3179C47.2877 31.4598 47.6659 31.9175 47.6996 31.9582L47.7017 31.961L47.7375 32.0063L47.7017 32.0517C47.6992 32.0658 47.3828 32.4833 46.4756 32.4833C46.1254 32.4833 45.276 32.3552 45.276 31.1658C45.276 30.7973 45.3225 30.3652 45.3634 30.0577C43.9546 32.2413 43.0311 32.5105 42.3365 32.5105C41.8454 32.5105 41.505 32.3588 41.2591 32.0225C40.977 31.6352 40.4387 30.0577 41.5617 27.8976C42.058 26.9324 42.6667 26.2276 43.3885 25.7864C44.0385 25.38 44.6178 25.3074 45.0119 25.3074C45.7023 25.3074 46.2282 25.5878 46.3826 25.6815ZM43.0773 30.2511C43.0773 30.5783 43.1759 30.8909 43.3609 30.8909V30.891C43.4437 30.891 43.5644 30.8259 43.6891 30.6883C44.3684 29.9965 45.3232 28.5847 46.003 27.2219C45.8732 27.0694 45.3488 26.4771 44.7881 26.4771C44.5575 26.4771 44.3265 26.6057 44.1323 26.8094C43.2567 27.856 43.0773 29.8966 43.0773 30.2511ZM54.2411 25.3073C53.2602 25.3073 52.0825 26.9087 51.5841 27.6515C51.6664 27.3304 51.7876 26.8568 51.8806 26.4207C51.945 26.0939 51.901 25.8388 51.7727 25.6674C51.6041 25.4798 51.326 25.38 50.9372 25.38C50.3805 25.38 49.7083 25.62 49.6843 25.6291L49.5867 25.6694L49.6731 25.742C49.6731 25.7429 49.6745 25.7456 49.6769 25.7504L49.6769 25.7504C49.7024 25.801 49.8448 26.0832 49.7426 26.8967C49.5867 27.8674 48.9606 30.2875 48.6965 31.2673C48.5753 31.6611 48.605 31.9484 48.7517 32.1526C48.975 32.451 49.4094 32.4853 49.7084 32.4853C50.2169 32.4853 50.723 32.3099 50.745 32.2847L50.8421 32.2645L50.7838 32.1853C50.7802 32.1803 50.5415 31.8052 50.8196 31.0806C51.5688 29.215 52.4015 28.1254 52.9013 27.7513C53.0169 27.6717 53.1344 27.6228 53.2499 27.6228C53.5244 27.6228 53.6987 27.9268 53.6987 27.9268L53.7396 28.0029L53.8004 27.9414C54.0621 27.6848 54.5293 27.1401 54.6995 26.6486C54.817 26.3542 54.9693 25.8302 54.7404 25.5263C54.6453 25.3745 54.4751 25.3074 54.2405 25.3074L54.2411 25.3073Z" fill="#D60F27"/>
</svg>
