<svg width="64" height="64" viewBox="0 0 64 64" fill="none" xmlns="http://www.w3.org/2000/svg">
<rect width="64" height="64" rx="4" fill="white"/>
<path d="M21.5723 28.7303L21.2037 30.5357C24.7304 30.4676 36.2796 26.3188 36.8108 23.8107L36.9858 22.9527C33.0136 25.7139 24.771 28.7476 21.5723 28.7303ZM22.3193 25.696L21.976 27.3592C25.4812 27.3521 37.0512 23.1412 37.5826 20.6335L37.7294 19.9155C32.6049 23.4643 25.4277 25.6094 22.3193 25.696ZM23.013 22.5785L22.6444 24.385C26.2805 24.3711 37.72 20.1673 38.2515 17.6589C38.2515 17.6593 38.2865 17.4945 38.3207 17.3298C38.3548 17.1647 38.3884 17 38.386 17C33.4304 20.3349 25.9435 22.5713 23.013 22.5785Z" fill="url(#paint0_linear)"/>
<path fill-rule="evenodd" clip-rule="evenodd" d="M45.1786 37.8367C45.0922 37.7464 44.9954 37.6621 44.8923 37.5823C44.3367 37.1279 43.6649 36.8608 42.941 36.8608C42.1598 36.8608 41.4401 37.1745 40.8609 37.6967C40.8543 37.7009 40.848 37.7052 40.8418 37.7095C40.8322 37.7162 40.8228 37.7228 40.8125 37.7282C40.7918 37.7395 40.7624 37.7537 40.7282 37.7447C40.633 37.7199 40.5314 37.6184 40.5307 37.4732V34.4528C40.5307 34.2632 40.375 34.1097 40.1843 34.1097H38.7143C38.5225 34.1097 38.368 34.2632 38.368 34.4528V34.5573C38.368 34.5597 38.3676 34.5617 38.3673 34.5636C38.367 34.5653 38.3668 34.5668 38.3668 34.5685V34.9192L38.3693 44.6565C38.3693 44.8498 38.5258 45.0063 38.7185 45.0063H40.0492C40.1339 45.0063 40.211 44.9747 40.2711 44.9236L40.2732 44.9226L40.2747 44.9221C40.2759 44.9217 40.2769 44.9214 40.2776 44.9207C40.2789 44.9197 40.2796 44.9185 40.2802 44.9174L40.2807 44.9165L40.2816 44.9153C40.3102 44.8904 40.3325 44.8605 40.3512 44.8282H40.3521C40.375 44.7853 40.3903 44.7401 40.3953 44.6898C40.4219 44.4746 40.5683 44.3558 40.6593 44.3865C40.6905 44.3963 40.7203 44.4114 40.7507 44.4333C40.7723 44.4468 40.7936 44.4607 40.8146 44.4744L40.8425 44.4926C40.9329 44.5588 41.3293 44.8304 41.6367 44.9672C41.7916 45.0358 42.2851 45.2035 42.858 45.2035C43.3881 45.2035 43.7762 45.0949 43.9076 45.0582L43.9346 45.0507C44.0312 45.0252 44.126 44.9929 44.217 44.9507C44.6657 44.7581 45.0264 44.4926 45.3005 44.1571C45.5717 43.8276 45.7966 43.4373 45.9784 42.9888C46.2493 42.399 46.4034 41.7219 46.4034 41.0013C46.4034 39.824 45.9913 38.7641 45.3315 38.0103L45.3126 37.9879C45.2688 37.9359 45.225 37.884 45.1786 37.8367ZM42.2967 43.6487C41.2196 43.6487 40.3461 42.488 40.3461 41.0579C40.3461 39.6271 41.2196 38.467 42.2967 38.467C43.3729 38.467 44.2455 39.6271 44.2455 41.0579C44.2455 42.4878 43.3728 43.6487 42.2967 43.6487ZM5.4195 38.9395C5.89267 38.1158 6.74719 37.5817 7.9381 37.5817C9.77023 37.5817 11.0668 39.1072 11.0509 41.3521C11.0509 43.9911 9.38807 45.3038 7.73903 45.3038C6.67041 45.3038 5.81549 44.8914 5.26675 43.915H5.22044L5.1607 45.136H4C4.03087 44.6319 4.06094 43.8834 4.06094 43.2281V34.3002H5.38903V38.9395H5.4195ZM5.45051 42.6633C5.70958 43.5938 6.48786 44.2355 7.46466 44.2355C8.86873 44.2355 9.70822 43.0905 9.70835 41.3963C9.70835 39.916 8.94484 38.6489 7.51057 38.6489C6.5943 38.6489 5.73965 39.2749 5.46474 40.298C5.46015 40.3213 5.4552 40.3453 5.4501 40.37C5.42184 40.5071 5.38917 40.6655 5.38917 40.8471V42.1749C5.38917 42.3427 5.41964 42.5099 5.45051 42.6633ZM14.943 37.5815C17.2024 37.5815 17.7519 39.123 17.7519 40.6027H17.7521V43.3652C17.7521 44.0068 17.7825 44.6319 17.874 45.136H16.653L16.5457 44.2045H16.5002C16.0876 44.7855 15.2936 45.3038 14.2415 45.3038C12.7452 45.3038 11.9832 44.2512 11.9832 43.183C11.9832 41.3963 13.5697 40.4192 16.4234 40.4357V40.2821C16.4234 39.6722 16.2561 38.5731 14.7455 38.5731C14.0576 38.5731 13.3411 38.786 12.8216 39.123L12.5158 38.2375C13.1267 37.8411 14.0132 37.5815 14.943 37.5815ZM16.3775 43.0755C16.4234 42.937 16.4546 42.785 16.4546 42.6482V41.3655C14.9884 41.3348 13.3255 41.5951 13.3255 43.0289C13.3255 43.8993 13.9051 44.3123 14.5916 44.3123C15.5538 44.3123 16.1638 43.7006 16.3775 43.0755ZM23.491 37.5809C22.2697 37.5809 21.4151 38.2685 21.0484 38.9696H21.0179L20.9409 37.7486H19.7516C19.7967 38.3603 19.8129 38.9847 19.8129 39.7475V45.1353H21.1546V40.6954C21.1546 40.4652 21.1855 40.2358 21.2464 40.0688C21.4751 39.321 22.1627 38.6944 23.0478 38.6944C24.3153 38.6944 24.7568 39.6867 24.7568 40.8776V45.1354H26.1004V40.725C26.1002 38.1917 24.5123 37.5809 23.491 37.5809ZM32.2513 37.7486H33.8691L31.0147 40.7863L34.2649 45.1352H32.6329L30.0842 41.5951L29.3971 42.3579V45.1352H28.0685V34.3002H29.3971V41.1369H29.4276C29.6108 40.8773 29.8696 40.5569 30.0844 40.2973L32.2513 37.7486ZM49.8739 37.0603C50.0676 37.0603 50.2244 37.2176 50.2244 37.4116V37.6694L50.2294 37.7273C50.2342 37.8297 50.2342 37.9319 50.2294 38.0335C50.228 38.0616 50.2269 38.0884 50.2259 38.1147L50.2259 38.1151L50.2244 38.1538V45.4043C50.2244 45.4209 50.2196 45.4972 50.214 45.5843C50.2081 45.6785 50.2013 45.7853 50.1989 45.8435C50.1832 46.2152 50.0997 46.5229 49.9466 46.7666C49.8134 46.9713 49.66 47.139 49.4884 47.2721C49.3143 47.4038 49.1059 47.5295 48.846 47.5919C48.1848 47.7521 47.2008 47.7499 47.15 47.7288C46.998 47.6981 46.8908 47.6371 46.8294 47.5453C46.8096 47.4942 46.7972 47.434 46.7918 47.3626C46.7857 47.2917 46.7744 46.4364 46.7832 46.3552C46.7949 46.2733 46.8097 46.2063 46.8296 46.1567C46.8812 46.0446 46.9722 45.9913 47.1046 45.9957C47.2378 46.0016 47.3694 45.983 47.501 45.9423C47.7869 45.8732 48.0339 45.5949 48.0415 45.3917V37.4116C48.0415 37.2176 48.1987 37.0603 48.3932 37.0603H49.8739ZM58.9279 38.0104L58.9204 38.0014L58.9203 38.0013C58.8735 37.9449 58.8263 37.888 58.7751 37.8367C58.6885 37.7464 58.5916 37.6621 58.4893 37.5823C57.9337 37.1279 57.2619 36.8608 56.5375 36.8608C55.7568 36.8608 55.0378 37.1745 54.4586 37.6967C54.4513 37.701 54.4446 37.7056 54.438 37.7101C54.4284 37.7166 54.4191 37.7229 54.4087 37.7282C54.3884 37.7395 54.3601 37.7537 54.3256 37.7447C54.2304 37.7199 54.1284 37.6184 54.1269 37.4732V34.4528C54.1269 34.2632 53.972 34.1097 53.7814 34.1097H52.3118C52.1199 34.1097 51.965 34.2632 51.965 34.4528V34.5573C51.965 34.5597 51.9647 34.5617 51.9644 34.5636C51.9641 34.5653 51.9639 34.5668 51.9639 34.5685V34.9192L51.9658 44.6565C51.9658 44.8498 52.1226 45.0063 52.3159 45.0063H53.6452C53.7309 45.0063 53.8084 44.9747 53.8689 44.9236C53.8699 44.9228 53.8708 44.9224 53.8716 44.922C53.8724 44.9216 53.8732 44.9213 53.8742 44.9207C53.8747 44.9203 53.8751 44.9199 53.8755 44.9195C53.8758 44.9192 53.8761 44.9188 53.8763 44.9185L53.8769 44.9178C53.8775 44.9169 53.8782 44.916 53.8791 44.9153C53.9061 44.8904 53.9299 44.8605 53.9487 44.8282L53.9495 44.8266C53.972 44.7852 53.9874 44.74 53.9923 44.6896C54.019 44.4745 54.1645 44.3557 54.256 44.3864C54.2872 44.3962 54.3181 44.4112 54.3481 44.4331L54.3694 44.447C54.3925 44.4622 54.416 44.4776 54.4399 44.4925C54.5295 44.5586 54.9267 44.8303 55.2335 44.9671C55.3884 45.0357 55.8812 45.2033 56.4553 45.2033C56.9818 45.2033 57.368 45.096 57.5021 45.0586L57.5314 45.0506C57.6282 45.0251 57.7226 44.9927 57.8139 44.9506C58.2611 44.758 58.6233 44.4925 58.8979 44.157C59.1691 43.8275 59.3936 43.4371 59.5754 42.9887C59.8457 42.3988 60 41.7218 60 41.0012C59.9998 39.8241 59.5872 38.7642 58.9279 38.0104ZM55.8937 43.6487C54.8165 43.6487 53.9434 42.488 53.9434 41.0579C53.9434 39.6271 54.8165 38.467 55.8937 38.467C56.9701 38.467 57.8429 39.6271 57.8429 41.0579C57.8427 42.4878 56.9701 43.6487 55.8937 43.6487ZM48.5515 34.3416C48.7109 34.2484 48.8965 34.2009 49.1071 34.1979C49.3179 34.2009 49.503 34.2484 49.6558 34.3416C49.8098 34.4371 49.9308 34.5651 50.0135 34.7214C50.097 34.8809 50.1411 35.0562 50.1411 35.251C50.1411 35.439 50.1 35.6091 50.0169 35.7656C49.9337 35.9213 49.8126 36.0462 49.6531 36.1418C49.4935 36.2342 49.2987 36.2824 49.0689 36.2854C48.8644 36.2824 48.6856 36.2342 48.5321 36.1418C48.3825 36.0462 48.264 35.9213 48.1813 35.7656C48.0982 35.6091 48.0537 35.439 48.0537 35.251C48.0537 35.0562 48.0982 34.8809 48.1877 34.7214C48.2739 34.5651 48.3954 34.4371 48.5515 34.3416Z" fill="#165781"/>
<defs>
<linearGradient id="paint0_linear" x1="21.2037" y1="23.7678" x2="38.3861" y2="23.7678" gradientUnits="userSpaceOnUse">
<stop stop-color="#2B96CA"/>
<stop offset="0.5" stop-color="#295B80"/>
<stop offset="1" stop-color="#C9AF40"/>
</linearGradient>
</defs>
</svg>
