<svg width="64" height="64" viewBox="0 0 64 64" fill="none" xmlns="http://www.w3.org/2000/svg">
<path d="M0 4C0 1.79086 1.79086 0 4 0H60C62.2091 0 64 1.79086 64 4V60C64 62.2091 62.2091 64 60 64H4C1.79086 64 0 62.2091 0 60V4Z" fill="white"/>
<path fill-rule="evenodd" clip-rule="evenodd" d="M37.9643 16.9896V37.7655H42.8481V22.1933C42.8481 21.0305 42.228 17.5177 37.9643 16.9896ZM11.9944 34.151C12.6146 34.151 13.1234 34.0735 13.5158 33.9136C13.9083 33.7537 14.2184 33.5502 14.4412 33.3031C14.6641 33.0511 14.8143 32.7701 14.9015 32.4552C14.9839 32.1403 15.0275 31.8205 15.0275 31.4959C15.0275 31.1228 14.979 30.7933 14.8821 30.4929C14.7852 30.1974 14.6157 29.9454 14.3831 29.7419C14.1457 29.5384 13.8356 29.3785 13.4431 29.2671C13.0555 29.1557 12.5613 29.1024 11.9702 29.1024H8.68523V34.151H11.9944ZM8.68523 20.9529V25.9579H11.132C11.6504 25.9579 12.1204 25.9191 12.5371 25.8465C12.9538 25.7738 13.3075 25.643 13.603 25.4588C13.8937 25.2747 14.1166 25.0179 14.2716 24.6933C14.4267 24.3687 14.4994 23.9617 14.4994 23.4675C14.4994 22.983 14.4412 22.5857 14.3201 22.2659C14.199 21.9461 14.0149 21.6893 13.7629 21.4955C13.511 21.3017 13.196 21.1612 12.8084 21.0789C12.4257 20.9965 11.9654 20.9529 11.4373 20.9529H8.68523ZM11.4421 17.4353C12.8423 17.4353 14.0342 17.5662 15.0178 17.8229C16.0014 18.0846 16.8056 18.448 17.4258 18.9228C18.046 19.3976 18.5014 19.9693 18.7825 20.6476C19.0635 21.326 19.2088 22.0818 19.2088 22.9152C19.2088 23.3706 19.1458 23.8067 19.015 24.2282C18.8842 24.6497 18.6807 25.0422 18.4045 25.4104C18.1284 25.7786 17.7698 26.1129 17.3338 26.4182C16.8977 26.7234 16.3744 26.9899 15.7639 27.2128C17.1012 27.5374 18.0896 28.0607 18.7292 28.7826C19.3687 29.5045 19.6885 30.4445 19.6885 31.5928C19.6885 32.4552 19.5238 33.2595 19.1894 34.0008C18.8551 34.7421 18.3658 35.3913 17.7214 35.9388C17.077 36.4912 16.2824 36.9224 15.3376 37.2325C14.3928 37.5426 13.3123 37.6976 12.0962 37.6976H4V17.4353H11.4421ZM33.3757 22.0479C33.5259 21.9365 33.6713 21.7717 33.8118 21.5489L33.8215 21.5634L34.9891 19.3782C34.6258 19.0439 34.2188 18.7484 33.7585 18.4819C33.2982 18.2154 32.804 17.9877 32.2759 17.7987C31.7478 17.6098 31.1906 17.4644 30.5995 17.3675C30.0084 17.2706 29.4027 17.2222 28.7825 17.2222C27.6682 17.2222 26.6798 17.3917 25.8173 17.7309C24.9549 18.0701 24.2281 18.5207 23.6322 19.0875C23.0362 19.6544 22.5856 20.2988 22.2804 21.0207C21.9751 21.7427 21.8201 22.484 21.8201 23.2446C21.8201 24.1894 21.9461 24.984 22.2077 25.6284C22.4645 26.2728 22.8085 26.8107 23.23 27.2419C23.6516 27.6731 24.1312 28.0171 24.669 28.2836C25.2068 28.55 25.7592 28.7729 26.3261 28.9522C26.8929 29.1315 27.4453 29.2962 27.9831 29.4464C28.5209 29.5917 29.0006 29.7662 29.4221 29.96C29.8436 30.1538 30.1828 30.4009 30.4444 30.6964C30.7012 30.992 30.832 31.3748 30.832 31.8496C30.832 32.6684 30.5995 33.2595 30.1246 33.6374C29.6498 34.0105 28.986 34.1995 28.1333 34.1995C27.5034 34.1995 26.9559 34.1074 26.4908 33.933C26.0257 33.7537 25.6187 33.5599 25.2601 33.3467C24.9078 33.1372 24.5929 32.9417 24.3154 32.7695L24.3008 32.7605C24.0149 32.5812 23.7339 32.494 23.4578 32.494C23.2446 32.494 23.0459 32.5473 22.8667 32.6539C22.6874 32.7605 22.542 32.8913 22.4306 33.0512L21.04 35.246C21.4373 35.6433 21.9073 36.0067 22.4451 36.3313C22.9829 36.6559 23.5595 36.9369 24.17 37.1744C24.7805 37.4069 25.4152 37.591 26.0693 37.7219C26.7234 37.8527 27.3678 37.9157 27.9976 37.9157C29.1459 37.9157 30.1731 37.7412 31.0791 37.3924C31.9852 37.0435 32.7458 36.5639 33.3612 35.9582C33.9814 35.3477 34.4513 34.6355 34.776 33.8215C35.1006 33.0076 35.2605 32.1306 35.2605 31.1955C35.2605 30.3524 35.1345 29.6305 34.8729 29.0346C34.6112 28.4386 34.2721 27.9299 33.8505 27.5132C33.429 27.0965 32.9445 26.7574 32.4018 26.486C31.8592 26.2147 31.3068 25.9821 30.74 25.7835C30.1731 25.5848 29.6207 25.4056 29.0781 25.2408C28.5354 25.0761 28.0509 24.8968 27.6294 24.703C27.2079 24.5044 26.8687 24.2767 26.6071 24.0053C26.3503 23.734 26.2195 23.3948 26.2195 22.9879C26.2195 22.3483 26.4375 21.8396 26.8687 21.4665C27.2999 21.0934 27.954 20.9045 28.8358 20.9045C29.3446 20.9045 29.8 20.9723 30.1973 21.1079C30.5995 21.2388 30.9532 21.3938 31.2632 21.5585C31.5733 21.7233 31.8495 21.8735 32.0966 22.0091C32.3437 22.1448 32.5714 22.2126 32.7846 22.2126C33.0269 22.2126 33.2207 22.1593 33.3757 22.0479Z" fill="#0CA49D"/>
<path d="M43.3862 9.50389C43.3765 9.33431 43.3572 9.16473 43.3329 9C44.4279 10.1289 45.9881 10.7878 47.679 10.6813C48.4881 10.628 49.244 10.4051 49.9175 10.0514C49.3942 10.9623 49.1229 12.033 49.1955 13.162C49.2827 14.5573 49.8835 15.7977 50.7944 16.7183C50.3293 16.6262 49.8399 16.5875 49.3409 16.6214C47.3641 16.7473 45.6925 17.8908 44.8107 19.5091C44.4619 17.1156 42.6062 15.255 40.2805 14.8432C42.2428 13.8839 43.5364 11.8102 43.3911 9.49905L43.3862 9.50389Z" fill="#F9AD3C"/>
<path fill-rule="evenodd" clip-rule="evenodd" d="M31.2101 41.7662C31.1859 41.8049 31.1569 41.8388 31.1278 41.8582C31.0987 41.8776 31.0648 41.8873 31.026 41.8873C30.9824 41.8873 30.9243 41.8631 30.8661 41.8195C30.8032 41.7759 30.7256 41.7226 30.6336 41.6693C30.5415 41.6111 30.4301 41.5627 30.2993 41.5142C30.1684 41.4658 30.0134 41.4464 29.8244 41.4464C29.65 41.4464 29.495 41.4706 29.3593 41.5191C29.2285 41.5627 29.1171 41.6305 29.025 41.708C28.9378 41.7904 28.87 41.8825 28.8215 41.9939C28.7779 42.1005 28.7537 42.2168 28.7537 42.3476C28.7537 42.5075 28.7924 42.6431 28.87 42.7546C28.9523 42.8612 29.0541 42.9484 29.1849 43.0259C29.3157 43.1034 29.4659 43.1664 29.6306 43.2246C29.8002 43.2778 29.9698 43.336 30.1393 43.3941L30.1394 43.3941C30.3138 43.4523 30.4834 43.5201 30.6481 43.5976C30.8177 43.6703 30.963 43.7624 31.0939 43.8786C31.2247 43.9901 31.3313 44.1306 31.4088 44.2953C31.4912 44.4601 31.5299 44.6635 31.5299 44.901C31.5299 45.1529 31.4863 45.3952 31.3991 45.618C31.3119 45.8409 31.1859 46.0299 31.0163 46.1946C30.8516 46.3593 30.6481 46.4902 30.4059 46.5822C30.1636 46.6743 29.8923 46.7227 29.5822 46.7227C29.2043 46.7227 28.8603 46.6549 28.555 46.5192C28.2498 46.3836 27.9833 46.1946 27.7653 45.9669L27.993 45.5938C28.0124 45.5647 28.0414 45.5405 28.0705 45.5211C28.1044 45.5018 28.1383 45.4872 28.1771 45.4872C28.211 45.4872 28.2498 45.5018 28.2934 45.5308L28.3196 45.5482L28.3197 45.5482L28.3197 45.5483L28.3198 45.5483L28.3199 45.5483L28.32 45.5484C28.3579 45.5735 28.4016 45.6023 28.4484 45.6374L28.4733 45.6561C28.5245 45.6947 28.5798 45.7363 28.6422 45.7779C28.7149 45.8312 28.7973 45.8748 28.8893 45.9184C28.9814 45.962 29.088 45.996 29.2091 46.0299C29.3302 46.0589 29.4611 46.0686 29.6113 46.0686C29.7954 46.0686 29.965 46.0444 30.1103 45.9911C30.2557 45.9378 30.3768 45.87 30.4785 45.7779C30.5803 45.6859 30.6578 45.5696 30.7111 45.4436C30.7644 45.3128 30.7935 45.1674 30.7935 45.0124C30.7935 44.838 30.7547 44.6926 30.6723 44.5812C30.5948 44.4697 30.4882 44.3728 30.3623 44.3002C30.2314 44.2226 30.0861 44.1597 29.9165 44.1112L29.4078 43.9513C29.2333 43.8932 29.0638 43.8302 28.899 43.7575C28.7294 43.6848 28.5841 43.5879 28.4533 43.4765C28.3225 43.3602 28.2207 43.2149 28.1383 43.0453C28.0608 42.8709 28.0221 42.6528 28.0221 42.396C28.0221 42.1925 28.0608 41.9939 28.1383 41.8001C28.2207 41.6063 28.337 41.4367 28.4872 41.2913C28.6422 41.1412 28.8263 41.0249 29.0492 40.9328C29.2721 40.8456 29.5289 40.7971 29.8196 40.7971C30.1442 40.7971 30.4398 40.8504 30.7014 40.9522C30.9679 41.0539 31.2053 41.2041 31.404 41.3979L31.215 41.771L31.2101 41.7662ZM6.61648 45.9572C6.45659 46.0105 6.26279 46.0347 6.03991 46.0347H4.78503V44.0143H6.03991C6.46628 44.0143 6.78606 44.1015 6.99925 44.2759C7.21243 44.4455 7.31902 44.6829 7.31902 44.9833C7.31902 45.1384 7.2948 45.2789 7.24635 45.4097C7.1979 45.5405 7.12037 45.652 7.01378 45.744C6.91203 45.8361 6.77637 45.9039 6.61648 45.9572ZM4.78503 43.4523V41.4755V41.4706H5.8558C6.28702 41.4706 6.60679 41.5481 6.81029 41.708C7.01863 41.8679 7.12037 42.115 7.12037 42.459C7.12037 42.6092 7.09615 42.74 7.04285 42.866C6.9944 42.9871 6.91203 43.0889 6.80544 43.1761C6.69885 43.2633 6.56319 43.3311 6.39845 43.3796C6.23372 43.428 6.04476 43.4523 5.82188 43.4523H4.78503ZM6.77637 40.9619C6.51958 40.8892 6.21434 40.8553 5.8558 40.8553V40.8504H4.00497V46.6501H6.05445C6.37907 46.6501 6.66978 46.6113 6.92173 46.5338C7.17367 46.4514 7.38686 46.34 7.56128 46.1946C7.7357 46.0493 7.87137 45.8748 7.95858 45.6713C8.05064 45.4678 8.09424 45.245 8.09424 44.9979C8.09424 44.6393 7.98765 44.3486 7.76962 44.1257C7.55643 43.9029 7.23666 43.7527 6.81029 43.6703C6.9944 43.6122 7.15429 43.5395 7.28995 43.4523C7.42562 43.3651 7.5419 43.2585 7.62911 43.147C7.71632 43.0356 7.78415 42.9145 7.82776 42.7836C7.87137 42.6528 7.89559 42.5172 7.89559 42.3718C7.89559 42.1392 7.85683 41.9261 7.77931 41.7419C7.70179 41.553 7.58066 41.3931 7.41108 41.2623C7.24635 41.1315 7.03316 41.0297 6.77637 40.9619ZM11.3257 42.1441L12.2366 44.5037H12.2318H10.066L10.9769 42.1489C11.035 42.0036 11.0932 41.8195 11.1513 41.6014C11.1804 41.708 11.2095 41.8098 11.2385 41.9018C11.2519 41.9381 11.2638 41.973 11.275 42.0059C11.2923 42.0566 11.3081 42.103 11.3257 42.1441ZM13.2638 46.6549H13.8694H13.8791L11.5583 40.8553H10.7637L8.44291 46.6549H9.04855C9.11638 46.6549 9.17452 46.6355 9.21812 46.5968C9.26173 46.558 9.29565 46.5144 9.31018 46.4659L9.85283 45.0657H12.4547L12.9973 46.4659C13.0167 46.5241 13.0506 46.5677 13.0942 46.6016C13.1378 46.6355 13.1911 46.6549 13.2638 46.6549ZM19.3299 40.8601V46.6597H18.9374C18.8744 46.6597 18.8211 46.6501 18.7775 46.6258C18.7388 46.6064 18.6952 46.5677 18.6564 46.5144L15.3036 42.1441L15.3036 42.1446C15.3085 42.2123 15.3133 42.2799 15.3181 42.3427C15.323 42.4057 15.323 42.4687 15.323 42.5269V46.6597H14.635V40.8601H15.042C15.0759 40.8601 15.1049 40.865 15.1292 40.8698C15.1534 40.8747 15.1728 40.8795 15.1922 40.8892C15.2115 40.8989 15.2309 40.9086 15.2503 40.928C15.2629 40.9374 15.2755 40.951 15.2894 40.966L15.2894 40.966C15.2969 40.974 15.3048 40.9825 15.3133 40.991L18.6661 45.3564C18.6629 45.3081 18.6597 45.2641 18.6564 45.2201L18.6564 45.2197L18.6516 45.1529C18.6467 45.0851 18.6467 45.0221 18.6467 44.964V40.8553H19.3347L19.3299 40.8601ZM21.8929 43.399H21.5973H21.5925V40.8553H20.8124V46.6549H21.5925V43.9998H21.9462C22.0722 43.9998 22.1642 44.0143 22.2272 44.0434C22.2902 44.0676 22.3483 44.1161 22.4016 44.1839L24.4027 46.4853C24.422 46.5144 24.4414 46.5386 24.4608 46.558C24.4802 46.5774 24.5044 46.5968 24.5335 46.6113C24.5577 46.6258 24.5916 46.6355 24.6255 46.6452C24.6643 46.6501 24.7079 46.6549 24.7612 46.6549H25.4395L23.1332 43.9077C23.0751 43.8302 23.017 43.7672 22.9588 43.7236C22.9007 43.6703 22.8328 43.6364 22.7602 43.6122C22.8183 43.5831 22.8716 43.5492 22.9201 43.5104C22.9734 43.4717 23.0266 43.4135 23.0799 43.3505L25.2893 40.8553H24.6255C24.5383 40.8553 24.4657 40.865 24.4075 40.8941C24.3494 40.9183 24.2912 40.9667 24.2379 41.0394L22.3096 43.2246C22.2611 43.2875 22.203 43.3311 22.14 43.3602C22.077 43.3844 21.9946 43.399 21.8929 43.399ZM34.6987 46.6597V44.3486L36.8257 40.8601H36.1329C36.065 40.8601 36.0117 40.8795 35.9681 40.9182C35.9245 40.957 35.8906 41.0006 35.8664 41.0442L34.5437 43.2972C34.5103 43.3605 34.4816 43.4238 34.4543 43.484C34.4419 43.5113 34.4298 43.538 34.4177 43.5637C34.3789 43.646 34.345 43.7284 34.3159 43.8108C34.2869 43.7284 34.2481 43.646 34.2093 43.5637C34.1657 43.4813 34.1221 43.3941 34.0737 43.2972L32.7461 41.0442C32.7171 40.9909 32.6783 40.9473 32.6395 40.9134C32.6008 40.8795 32.5426 40.8601 32.4748 40.8601H31.7868L33.9138 44.3486V46.6597H34.6987ZM40.0815 44.5037L39.1706 42.1441C39.153 42.1031 39.1372 42.0568 39.12 42.0062L39.1199 42.006L39.1199 42.0059C39.1087 41.9729 39.0968 41.9381 39.0834 41.9018C39.0543 41.8098 39.0253 41.708 38.9962 41.6014C38.938 41.8195 38.8799 42.0036 38.8218 42.1489L37.9109 44.5037H40.0767H40.0815ZM41.7143 46.6549H41.1087C41.036 46.6549 40.9827 46.6355 40.9391 46.6016C40.8955 46.5677 40.8616 46.5241 40.8422 46.4659L40.2995 45.0657H37.6977L37.155 46.4659C37.1405 46.5144 37.1066 46.558 37.063 46.5968C37.0194 46.6355 36.9612 46.6549 36.8934 46.6549H36.2878L38.6086 40.8553H39.4032L41.724 46.6549H41.7143ZM44.6892 43.5831C44.5148 43.6364 44.3161 43.6655 44.0884 43.6655L44.0836 43.6703H43.2599V41.4803H44.1175C44.5729 41.4803 44.9121 41.5675 45.1398 41.7419C45.3675 41.9164 45.479 42.178 45.479 42.522C45.479 42.6916 45.4499 42.8466 45.3918 42.9871C45.3336 43.1277 45.2464 43.2488 45.1253 43.3505C45.009 43.4474 44.8636 43.525 44.6892 43.5831ZM46.0701 46.6549H46.7678L46.7581 46.6501L45.0671 44.3486C44.9944 44.242 44.9121 44.1597 44.8103 44.1015C45.0381 44.0482 45.2367 43.9755 45.4111 43.8738C45.5904 43.7769 45.7406 43.6558 45.8617 43.5153C45.9829 43.3748 46.0798 43.2149 46.1427 43.0356C46.2057 42.8563 46.2396 42.6625 46.2396 42.459C46.2396 42.2119 46.196 41.9939 46.1137 41.7952C46.0313 41.5966 45.9005 41.427 45.7261 41.2865C45.5565 41.146 45.3336 41.0394 45.0671 40.9667C44.8006 40.8941 44.4857 40.8553 44.1175 40.8553H42.4798V46.6549H43.2599V44.2372H43.8558C43.9673 44.2372 44.0448 44.2517 44.0981 44.2808C44.1514 44.305 44.2047 44.3535 44.2483 44.4165L45.7551 46.4902C45.823 46.6016 45.9247 46.6549 46.0701 46.6549ZM48.3425 46.6597H47.5528V40.8601H48.3425V46.6597ZM51.991 42.1441L52.9019 44.5037H52.8971H50.7313L51.6422 42.1489C51.7003 42.0036 51.7584 41.8195 51.8166 41.6014C51.8457 41.708 51.8747 41.8098 51.9038 41.9018C51.9172 41.9381 51.929 41.9728 51.9403 42.0058L51.9403 42.006L51.9403 42.0061L51.9404 42.0063L51.9405 42.0065C51.9577 42.057 51.9735 42.1032 51.991 42.1441ZM53.9291 46.6549H54.5347H54.5444L52.2236 40.8553H51.429L49.1082 46.6549H49.7138C49.7816 46.6549 49.8398 46.6355 49.8834 46.5968C49.927 46.558 49.9609 46.5144 49.9754 46.4659L50.5181 45.0657H53.1199L53.6626 46.4659C53.682 46.5241 53.7159 46.5677 53.7595 46.6016C53.8031 46.6355 53.8612 46.6549 53.9291 46.6549ZM60 40.8601V46.6597H59.2151V44.0191H56.0851V46.6597H55.3002V40.8601H56.0851V43.4474H59.2151V40.8601H60ZM4 54.3053H4.78491V48.5057H4V54.3053ZM10.9673 48.5057V54.3053H10.5748C10.5119 54.3053 10.4586 54.2956 10.415 54.2714C10.3762 54.252 10.3326 54.2132 10.2938 54.16L6.941 49.7897C6.94585 49.8575 6.9507 49.9253 6.95554 49.9883C6.96039 50.0513 6.96039 50.1143 6.96039 50.1724V54.3053H6.27238V48.5057H6.67937C6.71328 48.5057 6.74236 48.5105 6.76658 48.5154C6.79081 48.5202 6.81019 48.5251 6.82957 48.5348C6.84895 48.5445 6.86833 48.5541 6.88771 48.5735C6.90031 48.583 6.91291 48.5965 6.92685 48.6115L6.92686 48.6115L6.92686 48.6115L6.92686 48.6115L6.9269 48.6116C6.93438 48.6196 6.94224 48.6281 6.9507 48.6365L10.3035 53.002L10.289 52.7985C10.2841 52.7306 10.2841 52.6677 10.2841 52.6095V48.5009H10.9721L10.9673 48.5057ZM17.2707 52.595C17.411 52.2371 17.4788 51.8455 17.4791 51.4104C17.4788 50.9753 17.4062 50.5836 17.2707 50.2257C17.1351 49.8672 16.9413 49.5619 16.6893 49.31C16.4374 49.0532 16.137 48.8546 15.7833 48.7189C15.4296 48.5784 15.042 48.5106 14.6156 48.5106H12.4498V54.3102H14.6156C15.042 54.3102 15.4344 54.2375 15.7833 54.1018C16.137 53.9613 16.4374 53.7627 16.6893 53.5107C16.9364 53.2539 17.1351 52.9535 17.2707 52.595ZM16.5294 50.4534C16.6263 50.7345 16.6748 51.0494 16.6748 51.4079C16.6748 51.7616 16.6263 52.0814 16.5294 52.3624C16.4325 52.6434 16.2969 52.8809 16.1176 53.0747C15.9383 53.2636 15.7203 53.4138 15.4684 53.5156C15.2164 53.6173 14.9354 53.6706 14.6205 53.6706H13.2396V49.1404H14.6205C14.9305 49.1404 15.2164 49.1937 15.4684 49.2955C15.7251 49.3972 15.9383 49.5474 16.1176 49.7412C16.2969 49.935 16.4325 50.1724 16.5294 50.4534ZM23.9665 51.4079C23.9665 51.844 23.8987 52.2413 23.7582 52.6047C23.6225 52.968 23.4287 53.2781 23.1768 53.5398C22.9248 53.8014 22.6244 54.0049 22.2707 54.1503C21.9219 54.2956 21.5294 54.3634 21.1031 54.3634C20.6767 54.3634 20.2891 54.2908 19.9354 54.1503C19.5865 54.0049 19.2861 53.8014 19.0342 53.5398C18.7822 53.2781 18.5884 52.968 18.4528 52.6047C18.3171 52.2413 18.2444 51.8391 18.2444 51.4079C18.2444 50.9719 18.3123 50.5746 18.4528 50.216C18.5884 49.8526 18.7822 49.5377 19.0342 49.2761C19.2861 49.0096 19.5865 48.8061 19.9354 48.6607C20.2842 48.5154 20.6767 48.4427 21.1031 48.4427C21.5294 48.4427 21.917 48.5154 22.2707 48.6607C22.6244 48.8061 22.9248 49.0096 23.1768 49.2761C23.4287 49.5377 23.6225 49.8526 23.7582 50.216C23.8939 50.5794 23.9665 50.9767 23.9665 51.4079ZM23.1622 51.4079C23.1622 51.0494 23.1138 50.7344 23.0169 50.4486C22.92 50.1676 22.7843 49.9253 22.605 49.7315C22.4258 49.5329 22.2126 49.3827 21.9558 49.2761C21.7039 49.1695 21.418 49.1162 21.1079 49.1162C20.7978 49.1162 20.5168 49.1695 20.26 49.2761C20.0081 49.3827 19.79 49.5329 19.6108 49.7315C19.4315 49.9253 19.2958 50.1627 19.1989 50.4486C19.102 50.7296 19.0536 51.0494 19.0536 51.4079C19.0536 51.7616 19.102 52.0814 19.1989 52.3673C19.2958 52.6483 19.4315 52.8857 19.6108 53.0843C19.79 53.2781 20.0081 53.4283 20.26 53.5349C20.512 53.6367 20.7978 53.69 21.1079 53.69C21.4228 53.69 21.7039 53.6367 21.9558 53.5349C22.2077 53.4283 22.4258 53.2781 22.605 53.0843C22.7843 52.8857 22.92 52.6483 23.0169 52.3673C23.1138 52.0862 23.1622 51.7665 23.1622 51.4079ZM29.7906 54.3053V48.5057L29.7955 48.5009H29.1075V52.6095C29.1075 52.6677 29.1075 52.7306 29.1123 52.7985L29.1269 53.002L25.774 48.6365C25.7656 48.628 25.7577 48.6196 25.7502 48.6115C25.7363 48.5965 25.7237 48.583 25.7111 48.5735C25.6917 48.5541 25.6723 48.5445 25.6529 48.5348C25.6335 48.5251 25.6142 48.5202 25.5899 48.5154C25.5657 48.5105 25.5366 48.5057 25.5027 48.5057H25.0957V54.3053H25.7837V50.1724C25.7837 50.1143 25.7837 50.0513 25.7789 49.9883C25.7741 49.9257 25.7693 49.8582 25.7644 49.7907L25.7644 49.7897L29.1172 54.16C29.1559 54.2132 29.1995 54.252 29.2383 54.2714C29.2819 54.2956 29.3352 54.3053 29.3982 54.3053H29.7906ZM34.8486 53.6658L34.8437 54.3053H31.2729V48.5057H34.8437V49.1453H32.0578V51.0688H34.3156V51.6841H32.0578V53.6658H34.8486ZM38.725 49.5329C38.7638 49.5329 38.7977 49.5232 38.8268 49.5038C38.8558 49.4844 38.8849 49.4505 38.9091 49.4117L38.914 49.4166L39.1029 49.0435C38.9043 48.8497 38.6669 48.6995 38.4004 48.5978C38.1388 48.496 37.8432 48.4427 37.5186 48.4427C37.2279 48.4427 36.9711 48.4912 36.7482 48.5784C36.5253 48.6704 36.3412 48.7867 36.1862 48.9369C36.036 49.0823 35.9197 49.2518 35.8373 49.4456C35.7598 49.6395 35.7211 49.8381 35.7211 50.0416C35.7211 50.2984 35.7598 50.5164 35.8373 50.6908C35.9197 50.8604 36.0215 51.0058 36.1523 51.1221C36.2831 51.2335 36.4284 51.3304 36.598 51.4031C36.7628 51.4758 36.9323 51.5387 37.1068 51.5969L37.6155 51.7568C37.7851 51.8052 37.9304 51.8682 38.0612 51.9457C38.1872 52.0184 38.2938 52.1153 38.3713 52.2267C38.4537 52.3382 38.4925 52.4835 38.4925 52.658C38.4925 52.813 38.4634 52.9584 38.4101 53.0892C38.3568 53.2151 38.2793 53.3266 38.1775 53.4235C38.0758 53.5155 37.9547 53.5834 37.8093 53.6367C37.6639 53.69 37.4944 53.7142 37.3103 53.7142C37.1601 53.7142 37.0292 53.7045 36.9081 53.6754C36.787 53.6415 36.6804 53.6076 36.5883 53.564C36.4963 53.5204 36.4139 53.4768 36.3412 53.4235C36.2788 53.3819 36.2236 53.3403 36.1724 53.3017L36.1474 53.283C36.0893 53.2394 36.0408 53.2055 35.9924 53.1764C35.9488 53.1473 35.91 53.1328 35.8761 53.1328C35.8373 53.1328 35.8034 53.1473 35.7695 53.1667C35.7404 53.1861 35.7114 53.2103 35.692 53.2394L35.4643 53.6124C35.6823 53.8402 35.9488 54.0291 36.254 54.1648C36.5593 54.3005 36.9033 54.3683 37.2812 54.3683C37.5913 54.3683 37.8626 54.3198 38.1049 54.2278C38.3471 54.1357 38.5506 54.0049 38.7153 53.8402C38.8849 53.6754 39.0109 53.4865 39.0981 53.2636C39.1853 53.0407 39.2289 52.7985 39.2289 52.5465C39.2289 52.3091 39.1902 52.1056 39.1078 51.9409C39.0303 51.7761 38.9237 51.6356 38.7929 51.5242C38.662 51.4079 38.5167 51.3159 38.3471 51.2432C38.1824 51.1657 38.0128 51.0978 37.8384 51.0397L37.8383 51.0397C37.6687 50.9815 37.4992 50.9234 37.3296 50.8701C37.1649 50.812 37.0147 50.749 36.8839 50.6715C36.7531 50.5939 36.6513 50.5067 36.569 50.4001C36.4914 50.2887 36.4527 50.153 36.4527 49.9931C36.4527 49.8672 36.4769 49.746 36.5205 49.6395C36.569 49.528 36.6368 49.436 36.724 49.3536C36.8161 49.2761 36.9275 49.2082 37.0583 49.1646C37.194 49.1162 37.349 49.092 37.5234 49.092C37.7124 49.092 37.8674 49.1162 37.9983 49.1598C38.1291 49.2082 38.2405 49.2567 38.3326 49.3148C38.4246 49.3681 38.5022 49.4214 38.5651 49.465C38.6233 49.5086 38.6814 49.5329 38.725 49.5329ZM41.1234 54.3053H40.3385V48.5057H41.1234V54.3053ZM44.7764 49.7897L45.6873 52.1492H45.6825H43.5167L44.4276 49.7945C44.4857 49.6491 44.5438 49.465 44.602 49.247C44.6311 49.3536 44.6601 49.4553 44.6892 49.5474C44.7033 49.5856 44.7157 49.6214 44.7275 49.6553C44.7441 49.703 44.7594 49.7472 44.7764 49.7897ZM46.7145 54.3005H47.3201H47.3298L45.009 48.5009H44.2144L41.8936 54.3005H42.4992C42.567 54.3005 42.6252 54.2811 42.6688 54.2423C42.7124 54.2036 42.7463 54.1599 42.7608 54.1115L43.3035 52.7113H45.9053L46.448 54.1115C46.4674 54.1696 46.5013 54.2132 46.5449 54.2472C46.5885 54.2811 46.6418 54.3005 46.7145 54.3005Z" fill="#0CA49D"/>
</svg>
