<svg width="64" height="64" viewBox="0 0 64 64" fill="none" xmlns="http://www.w3.org/2000/svg">
<rect width="64" height="64" rx="4" fill="white"/>
<path fill-rule="evenodd" clip-rule="evenodd" d="M4.80153 41.3575C5.43174 40.5717 6.40074 40.067 7.40753 40.01C8.36116 39.9364 9.33144 40.2713 10.0481 40.9022C9.72468 41.2282 9.40061 41.5522 9.07462 41.8757C8.52319 41.4286 7.75721 41.2525 7.07065 41.4485C6.30467 41.6496 5.68984 42.3041 5.51884 43.0752C5.31005 43.9123 5.6117 44.8634 6.30019 45.3937C7.08666 46.0373 8.30672 46.0047 9.07974 45.3546C9.17627 45.4513 9.27342 45.5475 9.37061 45.6438L9.37069 45.6438L9.37077 45.6439L9.37085 45.644L9.37092 45.6441L9.371 45.6442L9.37108 45.6442L9.37116 45.6443C9.60007 45.871 9.82915 46.0978 10.0507 46.3319C9.41085 46.8878 8.57891 47.2222 7.72967 47.2324C6.65948 47.2619 5.58737 46.7911 4.88863 45.9797C4.39997 45.4231 4.08871 44.7122 4.0189 43.9744C3.92091 43.0445 4.20719 42.0806 4.80153 41.3575ZM11.3342 40.2022L11.6824 40.2023H11.6824C12.0305 40.2024 12.3783 40.2025 12.7265 40.2015C12.7273 41.5039 12.7272 42.806 12.7271 44.1082C12.727 45.0851 12.7269 46.062 12.7272 47.039L12.3788 47.0391C12.0306 47.0392 11.6824 47.0393 11.3342 47.0383C11.3346 45.5192 11.3345 44.0001 11.3343 42.4809L11.3342 40.2022ZM14.9083 40.1862C14.7362 40.1859 14.5642 40.1857 14.3922 40.1862C14.3925 41.0977 14.3923 42.0092 14.3922 42.9206V42.9234V42.9235V42.9235V42.9235V42.9235V42.9235C14.392 44.2902 14.3917 45.6568 14.3929 47.0236C14.7409 47.0227 15.0886 47.0228 15.4365 47.0229H15.4366H15.4366H15.4367H15.4368H15.4368H15.4369L15.7852 47.023C15.785 46.5323 15.7851 46.0417 15.7852 45.5511C15.7854 44.6926 15.7856 43.8341 15.7839 42.9753C16.1413 43.6037 16.5024 44.2299 16.8635 44.8561L16.8637 44.8564L16.8637 44.8565L16.8638 44.8565L16.8638 44.8566L16.8638 44.8567L16.8639 44.8567L16.8639 44.8568C17.2903 45.5962 17.7167 46.3357 18.137 47.0787C18.6078 46.294 19.0612 45.4985 19.5146 44.703L19.5146 44.703C19.8439 44.1253 20.1732 43.5477 20.5092 42.974C20.5083 43.5734 20.5085 44.1727 20.5086 44.7722V44.7722V44.7722V44.7722V44.7723V44.7723V44.7723C20.5088 45.5218 20.509 46.2713 20.5073 47.0211C20.729 47.0238 20.9506 47.0233 21.1723 47.0229H21.1723C21.4141 47.0224 21.6558 47.0219 21.8977 47.0255C21.9028 45.6225 21.9021 44.2197 21.9014 42.8169V42.8169V42.8169V42.8168V42.8168V42.8168V42.8168V42.8133C21.901 41.9376 21.9005 41.0619 21.9015 40.1862C21.7061 40.1859 21.5107 40.186 21.3155 40.186C21.0552 40.1861 20.795 40.1863 20.5348 40.1855C20.1397 40.9116 19.7418 41.636 19.3438 42.3603L19.3436 42.3608L19.3436 42.3608L19.3436 42.3608C18.9455 43.0853 18.5475 43.8098 18.1523 44.5361C17.6665 43.6763 17.1916 42.8101 16.7168 41.9441C16.3948 41.3567 16.0728 40.7694 15.7474 40.1842C15.4675 40.187 15.1878 40.1866 14.9083 40.1862ZM23.4873 40.2015C24.0246 40.2023 24.5616 40.2022 25.0987 40.2021H25.0987C25.5015 40.202 25.9043 40.2019 26.3072 40.2022C26.7421 40.2105 27.1885 40.3021 27.56 40.5384C28.4572 41.0866 28.6635 42.5104 27.9141 43.2648C27.8181 43.3673 27.7041 43.4518 27.5907 43.5338C28.0179 43.7586 28.3458 44.1755 28.4252 44.6559C28.5411 45.304 28.3932 46.0482 27.8904 46.5055C27.4895 46.8891 26.9195 47.0275 26.379 47.0345C25.7713 47.041 25.1634 47.04 24.5556 47.0391H24.5555H24.5555H24.5554H24.5554H24.5554H24.5554C24.1991 47.0386 23.8429 47.038 23.4867 47.039C23.4869 46.1271 23.4868 45.2153 23.4866 44.3035V44.3035V44.3035V44.3035V44.3035V44.3034C23.4864 42.9362 23.4862 41.569 23.4873 40.2015ZM24.8797 41.4511C24.8792 41.782 24.8794 42.1129 24.8795 42.4438L24.8797 42.9401C25.0589 42.9395 25.2382 42.9398 25.4176 42.9401H25.4176H25.4177H25.4178H25.4178H25.4179H25.418H25.418H25.418H25.4181H25.4181C25.6488 42.9405 25.8797 42.9409 26.1106 42.9395C26.3495 42.935 26.6076 42.885 26.7824 42.7089C27.0309 42.445 27.0373 41.9999 26.8164 41.7168C26.6467 41.5125 26.3662 41.4491 26.1119 41.4504C25.7008 41.4511 25.2904 41.4511 24.8799 41.4511H24.8797ZM24.8797 44.1896L24.8795 44.7174C24.8794 45.0695 24.8792 45.4218 24.8797 45.7741C25.0495 45.7743 25.2193 45.7743 25.3892 45.7743C25.6721 45.7742 25.9551 45.7742 26.2381 45.7754C26.4501 45.7818 26.6729 45.7222 26.8318 45.5756C27.1481 45.2707 27.1539 44.7026 26.8311 44.4003C26.6569 44.2351 26.4071 44.1922 26.1759 44.189C25.7436 44.1883 25.3113 44.189 24.8797 44.1896ZM31.577 40.1859C31.4898 40.1868 31.4027 40.1878 31.3155 40.1868C31.3148 40.9915 31.3155 41.7961 31.3162 42.6007V42.6008V42.6008V42.6008V42.6009C31.3174 44.0678 31.3187 45.5346 31.3116 47.0012C31.4836 47.0085 31.6563 47.0077 31.8291 47.0068C31.8983 47.0065 31.9674 47.0061 32.0366 47.0063V41.4485C33.0914 42.8963 34.1447 44.3452 35.1978 45.7941L35.198 45.7944L35.1982 45.7947L36.0804 47.0082C36.2741 47.0067 36.4682 47.0068 36.6623 47.0069L36.808 47.007V40.1862H36.0875C36.0878 40.9791 36.0877 41.772 36.0876 42.5648C36.0875 43.6219 36.0874 44.679 36.0881 45.7363C35.2841 44.6472 34.4868 43.5531 33.6895 42.459L33.6891 42.4585L33.688 42.457L33.6875 42.4562L33.6871 42.4558C33.2132 41.8054 32.7393 41.155 32.264 40.5058C32.2338 40.469 32.2069 40.4291 32.18 40.3892C32.1308 40.3163 32.0816 40.2434 32.0129 40.19C31.8676 40.1828 31.7223 40.1844 31.577 40.1859ZM38.6013 40.1862H39.3218L39.3217 42.4597V42.4599V42.46V42.4601C39.3215 43.9754 39.3214 45.4906 39.3218 47.0057C39.1717 47.0069 39.0216 47.0068 38.8717 47.0068C38.7817 47.0067 38.6918 47.0067 38.602 47.007C38.6008 45.6428 38.601 44.2786 38.6013 42.9145C38.6014 42.005 38.6016 41.0956 38.6013 40.1862ZM42.9294 40.2329C42.093 42.5046 41.2617 44.7788 40.431 47.0531C40.6019 47.0552 40.7729 47.055 40.944 47.0548H40.9441C41.0867 47.0546 41.2293 47.0545 41.3719 47.0556C41.4806 46.7366 41.587 46.4166 41.6933 46.0966L41.6936 46.0959L41.6938 46.0953C41.7933 45.7958 41.8929 45.4963 41.9944 45.1977C42.9346 45.1977 43.8747 45.1977 44.8156 45.197C45.0327 45.7991 45.2466 46.4024 45.4573 47.0063C45.6187 47.0071 45.7803 47.0069 45.9419 47.0068C46.0632 47.0068 46.1846 47.0067 46.3059 47.007C45.7236 45.3539 45.1433 43.6994 44.5631 42.0451L43.9279 40.2342C43.8089 40.234 43.6901 40.2341 43.5712 40.2343C43.3573 40.2346 43.1435 40.235 42.9294 40.2329ZM43.727 44.3812H43.7267C43.2453 44.3816 42.7638 44.3819 42.2826 44.3798C42.5015 43.7359 42.7242 43.0933 42.9468 42.4507L42.9471 42.4498C43.1035 41.9986 43.2598 41.5473 43.4149 41.0956C43.7838 42.1914 44.154 43.2872 44.5293 44.3811C44.2619 44.3809 43.9945 44.3811 43.7271 44.3812H43.727H43.727ZM47.9052 41.3505C48.4739 40.7651 49.2348 40.3444 50.0552 40.2688C51.0665 40.1669 52.0733 40.5423 52.8911 41.118C52.8162 41.2152 52.7394 41.3108 52.6627 41.4064L52.6626 41.4065C52.576 41.5144 52.4895 41.6222 52.4057 41.7322C52.1335 41.3447 51.6512 41.2 51.2163 41.0828C50.46 40.8746 49.6018 40.9874 48.9632 41.4568C48.3862 41.8923 48.0006 42.5539 47.8476 43.2552C47.7611 43.9802 47.8328 44.7718 48.2632 45.3853C48.3705 45.5535 48.5239 45.6782 48.6771 45.8026L48.6772 45.8027C48.7352 45.8498 48.7932 45.897 48.8486 45.9464C49.2764 46.2954 49.8374 46.4536 50.3844 46.4485C51.0575 46.4549 51.7236 46.2826 52.339 46.0181C52.3388 45.7378 52.3389 45.4576 52.3391 45.1773C52.3393 44.7569 52.3396 44.3365 52.3384 43.9161C51.8049 43.9168 51.2714 43.9168 50.7379 43.9161C50.7379 43.7035 50.7379 43.4909 50.7373 43.2783C51.1615 43.2757 51.5858 43.276 52.0102 43.2763H52.0102C52.3437 43.2766 52.6772 43.2768 53.0109 43.2757C53.0116 43.8949 53.0115 44.5139 53.0114 45.133C53.0113 45.5973 53.0112 46.0616 53.0115 46.526C52.2885 46.9295 51.4597 47.0985 50.6438 47.1799C49.7798 47.1978 48.8774 46.9762 48.2049 46.412C47.5478 45.8721 47.1642 45.0504 47.0515 44.2178C46.965 43.2046 47.2225 42.1254 47.9052 41.3505ZM56.66 40.2348C55.8319 42.5065 55.0013 44.7769 54.1668 47.046C54.3801 47.0582 54.5937 47.0565 54.8074 47.0547C54.9075 47.0539 55.0075 47.0531 55.1076 47.0537C55.1997 46.7741 55.293 46.4948 55.3864 46.2155C55.4996 45.8769 55.6128 45.5383 55.7237 45.199C56.6671 45.1964 57.6111 45.1971 58.5551 45.1983C58.6251 45.3955 58.6948 45.5928 58.7645 45.7902C58.9079 46.1963 59.0514 46.6025 59.1975 47.0076C59.331 47.007 59.4646 47.007 59.5983 47.007C59.732 47.007 59.8658 47.007 60 47.0063C59.9917 46.9026 59.9718 46.8014 59.936 46.7047C59.5864 45.7166 59.24 44.7274 58.8936 43.7382C58.484 42.5687 58.0744 41.3992 57.6598 40.2316C57.4567 40.2348 57.2538 40.2346 57.051 40.2343C56.9207 40.2342 56.7904 40.2341 56.66 40.2348ZM56.6349 42.5903C56.8068 42.0939 56.9788 41.5976 57.1474 41.1001C57.2395 41.3704 57.3317 41.6407 57.424 41.911C57.705 42.7337 57.9859 43.5565 58.2593 44.3818C58.0461 44.3818 57.8329 44.3815 57.6196 44.3813C57.0865 44.3808 56.5532 44.3803 56.0202 44.383C56.2213 43.784 56.4281 43.1872 56.6349 42.5903Z" fill="#790008"/>
<path d="M21.2079 16H41.2079C41.2079 22.6663 41.2079 29.3325 41.2067 35.9988C34.5404 36 27.8741 35.9988 21.2079 36V16ZM23.8717 19.7543C25.4282 21.8384 27.0076 23.9044 28.5713 25.9825C27.0209 28.069 25.4318 30.1265 23.879 32.2118C27.4288 32.2263 30.9773 32.2118 34.5271 32.2191C36.1247 30.1519 37.6642 28.0399 39.2726 25.98L39.2424 25.9812C37.6751 23.9032 36.1005 21.83 34.5356 19.7519C30.981 19.7543 27.4263 19.7483 23.8717 19.7543Z" fill="#790008"/>
<path d="M23.8716 19.7543C27.4262 19.7483 30.9808 19.7543 34.5354 19.7519C36.1003 21.83 37.6749 23.9032 39.2422 25.9812C35.6852 25.9885 32.1282 25.9849 28.5711 25.9825C27.0074 23.9044 25.428 21.8384 23.8716 19.7543Z" fill="white"/>
<path d="M28.5714 25.9825C32.1285 25.9849 35.6855 25.9885 39.2425 25.9813L39.2728 25.98C37.6643 28.04 36.1248 30.1519 34.5273 32.2191C30.9775 32.2118 27.4289 32.2263 23.8792 32.2118C25.4319 30.1265 27.0211 28.069 28.5714 25.9825Z" fill="#ED3024"/>
</svg>
