<svg width="64" height="64" viewBox="0 0 64 64" fill="none" xmlns="http://www.w3.org/2000/svg">
<rect width="64" height="64" rx="4" fill="white"/>
<path fill-rule="evenodd" clip-rule="evenodd" d="M5.31378 33.6196H5.91965C6.26547 33.6196 6.54485 33.6491 6.85293 34.0302C7.07095 34.2937 7.31044 34.8759 7.31044 35.8177L7.31045 35.854C7.31053 36.1798 7.31061 36.5028 7.25306 36.8346C7.15702 37.377 6.92335 38.2468 5.58672 38.2468C5.22908 38.2468 5.31362 38.2369 5.31362 38.2369V33.6201L5.31378 33.6196ZM6.00112 39.0493C7.80002 39.0493 8.60535 38.1893 8.60535 35.8404C8.60535 35.2193 8.43505 34.1785 7.89515 33.5436C7.33683 32.8918 6.61482 32.8105 6.00495 32.8105H4V39.0493H6.00112ZM11.6787 37.4333C11.6787 37.6399 11.6732 37.9172 11.4687 38.1158C11.2972 38.2777 11.0555 38.2899 10.9635 38.2899C10.7353 38.2899 10.5299 38.2009 10.4434 37.8986C10.4217 37.8033 10.413 37.7073 10.413 37.6154C10.413 37.1597 10.6951 36.9679 11.0087 36.886C11.1606 36.8483 11.2668 36.8389 11.5939 36.8098L11.6787 36.8022V37.4333ZM11.6787 36.2398L11.0233 36.309C10.3171 36.3958 10.0468 36.4649 9.74452 36.6801C9.25663 37.0355 9.25034 37.5552 9.25034 37.7259C9.25034 38.1521 9.37109 38.4728 9.53556 38.6576C9.75235 38.9283 10.0959 39.0273 10.4276 39.0273C11.2409 39.0273 11.6287 38.6315 11.6287 38.6315L11.6343 38.913H12.7308V35.9617L12.7308 35.9419C12.7309 35.6111 12.7311 35.1558 12.3825 34.8319C12.1964 34.6611 12.0335 34.5824 11.7817 34.5441L11.7437 34.5367C11.5219 34.4939 11.4317 34.4765 11.2005 34.4765C10.4609 34.4765 9.90286 34.6161 9.58496 35.2223C9.45475 35.4731 9.45514 35.7246 9.45544 35.9221L9.45547 35.9499H10.4607L10.4618 35.9281C10.4707 35.7544 10.4825 35.524 10.6055 35.3619C10.6704 35.2659 10.8223 35.1288 11.1037 35.1288C11.1955 35.1288 11.4618 35.1288 11.5976 35.3666C11.6732 35.507 11.6795 35.6895 11.6795 35.8966V36.2402L11.6787 36.2398ZM20.1969 38.1158C20.4031 37.9172 20.4086 37.6399 20.4086 37.4333L20.4088 36.8022L20.3273 36.8095C19.998 36.8388 19.8927 36.8482 19.7403 36.886C19.425 36.9679 19.1446 37.1597 19.1446 37.6154C19.1446 37.7073 19.1507 37.8033 19.1728 37.8986C19.2605 38.2009 19.4628 38.2899 19.6894 38.2899C19.7872 38.2899 20.0298 38.2777 20.1969 38.1158ZM19.7558 36.309L20.4086 36.2398L20.4091 36.2402V35.8966C20.4091 35.6895 20.4028 35.507 20.3308 35.3666C20.1915 35.1288 19.9256 35.1288 19.8339 35.1288C19.5522 35.1288 19.4003 35.2659 19.3362 35.3619C19.2129 35.5242 19.201 35.755 19.1921 35.9287L19.191 35.9499H18.1886L18.1885 35.9156C18.1881 35.7191 18.1875 35.4704 18.3145 35.2223C18.6344 34.6161 19.1912 34.4765 19.9305 34.4765C20.1618 34.4765 20.2513 34.4937 20.4711 34.536L20.5133 34.5441C20.762 34.5824 20.928 34.6611 21.1141 34.8319C21.4589 35.1542 21.4586 35.6067 21.4584 35.937L21.4584 35.9617V38.913H20.3657L20.3601 38.6315C20.3601 38.6315 19.973 39.0273 19.1577 39.0273C18.8276 39.0273 18.4822 38.9283 18.2622 38.6576C18.0993 38.4728 17.9821 38.1521 17.9821 37.7259C17.9821 37.5552 17.9896 37.0355 18.4747 36.6801C18.7788 36.4649 19.0451 36.3958 19.7558 36.309ZM36.9286 38.9129H35.7844V36.2714C35.7844 36.1024 35.7844 35.9615 35.7715 35.8177C35.7604 35.6794 35.7235 35.2308 35.2245 35.2308C35.0923 35.2308 34.9803 35.2659 34.9086 35.2984C34.5732 35.4632 34.5629 35.7543 34.5547 35.9868L34.5545 35.9906V38.9129H33.408V34.5902H34.5545V35.0818C34.5752 35.0619 34.5958 35.0419 34.6164 35.0218L34.6165 35.0217L34.6168 35.0214C34.8823 34.7634 35.1496 34.5034 35.7463 34.5034C36.2865 34.5034 36.5541 34.7277 36.6647 34.8664C36.9075 35.1587 36.9187 35.534 36.9277 35.8369L36.9291 35.8803V38.913L36.9286 38.9129ZM15.997 38.9129H17.1404L17.1405 35.8803L17.1394 35.8405C17.131 35.5369 17.1206 35.1598 16.8745 34.8664C16.7608 34.7277 16.498 34.5034 15.9545 34.5034C15.3653 34.5034 15.1 34.7576 14.8337 35.0127L14.8337 35.0128L14.8336 35.0128C14.8096 35.0358 14.7855 35.0589 14.7612 35.0818V34.5902H13.6154V38.9129H14.7612V35.9906L14.7614 35.9865C14.7707 35.7541 14.7824 35.4631 15.1184 35.2984C15.19 35.2659 15.302 35.2308 15.43 35.2308C15.9317 35.2308 15.9708 35.6794 15.9782 35.8177C15.997 35.9615 15.997 36.1024 15.997 36.2714V38.9129ZM22.2991 34.5881H23.4444V35.0911L23.4539 35.0821C23.6753 34.87 24.062 34.4997 24.7401 34.4997C25.527 34.4997 25.7458 35.003 25.7994 35.1692C26.2681 34.6835 26.576 34.4997 27.0251 34.4997C27.2449 34.4997 27.3957 34.5381 27.5413 34.5949C28.1539 34.8469 28.1714 35.428 28.1829 35.8092L28.1831 35.8174V38.9099H27.0177V36.0932C27.0122 35.7871 27.003 35.6139 26.9287 35.4781C26.914 35.4431 26.8 35.2277 26.5105 35.2277C26.4124 35.2277 26.2256 35.253 26.1378 35.3048C25.8171 35.4689 25.805 35.7542 25.7994 35.9857V38.9101H24.6639V36.1113V36.1043C24.6639 35.7711 24.6639 35.2277 24.1503 35.2277C24.0334 35.2277 23.83 35.2631 23.7297 35.3226C23.4444 35.511 23.4366 35.7871 23.4444 36.1716V38.9102H22.2991V34.5881ZM31.5324 37.377C31.5562 37.1392 31.5655 36.9036 31.5655 36.6582H31.5654C31.5654 36.4733 31.5565 36.2827 31.5398 36.0934C31.5252 35.8261 31.4693 35.133 30.8527 35.133C30.7265 35.133 30.6178 35.1582 30.5049 35.2195C30.1744 35.4265 30.1269 35.8645 30.1035 36.0934C30.0801 36.3768 30.069 36.6169 30.069 36.7899C30.069 36.9833 30.0807 37.178 30.0954 37.377C30.1088 37.6438 30.1674 38.374 30.817 38.374C30.9236 38.374 31.0275 38.3476 31.1263 38.2969C31.46 38.1009 31.506 37.6413 31.5304 37.3969C31.5311 37.3901 31.5317 37.3835 31.5324 37.377ZM32.3353 35.0911C32.7334 35.5785 32.7334 36.2964 32.7334 36.6801C32.7334 37.0789 32.7334 37.8815 32.2822 38.4168C31.7742 39.0217 31.0902 39.0217 30.8168 39.0217C30.5245 39.0217 30.3704 39.0049 30.0799 38.9101C29.0825 38.5981 28.9047 37.7048 28.9047 36.8601C28.9047 36.4149 28.9047 35.5351 29.4814 34.9841C29.9914 34.4883 30.641 34.4765 30.9235 34.4765C31.1671 34.4765 31.8549 34.4765 32.3353 35.0911Z" fill="#046148"/>
<path d="M12.861 28.4071H23.4593L14.0594 25.3182L12.861 26.0079L8.79327 27.1327L12.861 28.4071Z" fill="#EF9826"/>
<path d="M4 24V28.4071H12.8624V26.0079L4 24Z" fill="#EB712D"/>
<path d="M23.4638 28.4071L12.8612 24.0002L12.8627 26.0079L23.4638 28.4071Z" fill="#FEC02B"/>
<path d="M60 36.6916V28.4043H45.7252L42.7581 30.6962L45.7252 33.4576L60 36.6916Z" fill="#EF9826"/>
<path d="M45.725 33.4576L41.8448 29.8733L23.465 28.4102L45.725 36.6967V33.4576Z" fill="#FEC02B"/>
<path d="M23.4603 28.4043V28.4083L45.7251 33.4565V28.4053H23.4603V28.4043Z" fill="#EB712D"/>
</svg>
