<svg width="64" height="64" viewBox="0 0 64 64" fill="none" xmlns="http://www.w3.org/2000/svg">
<path d="M0 4C0 1.79086 1.79086 0 4 0H60C62.2091 0 64 1.79086 64 4V60C64 62.2091 62.2091 64 60 64H4C1.79086 64 0 62.2091 0 60V4Z" fill="#FFCC00"/>
<path d="M20.6372 30.9044C20.355 31.2882 19.8921 31.943 19.6099 32.3269C19.4631 32.5188 19.2035 32.88 20.0727 32.88C20.9872 32.88 24.6337 32.88 24.6337 32.88C24.6337 32.88 25.3675 31.8753 25.9884 31.0399C26.8239 29.8996 26.0562 27.5401 23.0645 27.5401C20.3889 27.5401 11.267 27.5401 11.267 27.5401L9.21228 30.3173C9.21228 30.3173 19.8131 30.3173 20.355 30.3173C20.9195 30.3173 20.9082 30.5318 20.6372 30.9044Z" fill="#D2002E"/>
<path d="M17.2842 33.5574C16.4149 33.5574 16.6746 33.1961 16.8214 33.0042C17.1036 32.6204 17.5777 31.9656 17.86 31.593C18.1309 31.2205 18.1422 31.006 17.5777 31.006C17.0359 31.006 12.4862 31.006 12.4862 31.006L8.37683 36.583C8.37683 36.583 15.715 36.583 18.3906 36.583C21.6984 36.583 23.5386 34.3364 24.1031 33.5574C24.1144 33.5574 18.1987 33.5574 17.2842 33.5574Z" fill="#D2002E"/>
<path d="M23.7982 36.583H29.6688L31.8928 33.5574H26.0222C26.0335 33.5574 23.7982 36.583 23.7982 36.583Z" fill="#D2002E"/>
<path d="M38.96 27.5401L36.7134 30.5996H34.0829L36.3408 27.5401H30.4703L26.5303 32.8688H40.9018L44.8305 27.5401H38.96Z" fill="#D2002E"/>
<path d="M32.2992 36.583H38.1697L40.3937 33.5574H34.5232L32.2992 36.583Z" fill="#D2002E"/>
<path d="M0 34.7541V35.3976H8.18486L8.65902 34.7541H0Z" fill="#D2002E"/>
<path d="M9.5396 33.5574H0V34.2009H9.06544L9.5396 33.5574Z" fill="#D2002E"/>
<path d="M0 36.583H7.30429L7.77844 35.9508H0V36.583Z" fill="#D2002E"/>
<path d="M55.3861 35.3976H64V34.7541H55.849L55.3861 35.3976Z" fill="#D2002E"/>
<path d="M54.5055 36.583H63.9999V35.9508H54.9797L54.5055 36.583Z" fill="#D2002E"/>
<path d="M56.7295 33.5574L56.2554 34.2009H64V33.5574H56.7295Z" fill="#D2002E"/>
<path d="M49.0414 32.8688L52.9702 27.5288H46.7497L42.8209 32.8688H49.0414Z" fill="#D2002E"/>
<path d="M42.313 33.5574C42.313 33.5574 41.884 34.1445 41.6695 34.4267C40.9356 35.4202 41.5791 36.583 43.9951 36.583C46.7723 36.583 53.4331 36.583 53.4331 36.583L55.6571 33.5574H42.313Z" fill="#D2002E"/>
</svg>
