<svg width="64" height="64" viewBox="0 0 64 64" fill="none" xmlns="http://www.w3.org/2000/svg">
<rect width="64" height="64" rx="4" fill="white"/>
<path d="M20.4233 46.6167C20.4258 46.1861 20.3005 45.7644 20.0633 45.4049C19.826 45.0455 19.4875 44.7646 19.0905 44.5977C18.6938 44.4312 18.2567 44.3866 17.8346 44.4693C17.4125 44.5521 17.0245 44.7586 16.7201 45.0625C16.4152 45.3667 16.2073 45.7545 16.1226 46.1768C16.0379 46.5991 16.0802 47.037 16.2441 47.4353C16.4077 47.8334 16.6858 48.1738 17.0432 48.4135C17.4006 48.6531 17.8212 48.7812 18.2515 48.7814C18.5397 48.796 18.8277 48.7501 19.0971 48.6467C19.3664 48.5432 19.6111 48.3845 19.8154 48.1807C20.0199 47.9766 20.1795 47.7321 20.2841 47.4628C20.3887 47.1935 20.4359 46.9053 20.4228 46.6167H20.4233ZM13.9598 46.6167C13.9598 44.3258 15.7544 42.5735 18.2515 42.5735C20.7486 42.5735 22.5431 44.3375 22.5431 46.6167C22.5431 48.8964 20.7659 50.6599 18.2515 50.6599C15.7371 50.6599 13.9598 48.8964 13.9598 46.6167ZM10.554 47.0347C10.554 47.9796 9.59999 48.7529 8.38275 48.7529C8.08899 48.7819 7.79245 48.7463 7.51386 48.6487C7.23528 48.5511 6.98139 48.3938 6.76995 48.1878C6.55825 47.9814 6.39403 47.7315 6.28871 47.4552C6.18339 47.179 6.13949 46.8831 6.16006 46.5882C6.16006 45.3394 7.06879 44.4806 8.44588 44.4806C9.55417 44.4806 10.5255 45.2651 10.5255 46.1529L10.554 47.0347ZM10.6401 42.5735V43.4726H10.6116C10.2692 43.1606 9.86778 42.9202 9.43104 42.7658C8.9943 42.6114 8.53106 42.546 8.06864 42.5735C7.36605 42.5798 6.67751 42.7711 6.07237 43.1282C5.46722 43.4852 4.96684 43.9954 4.62159 44.6073C4.27564 45.22 4.0967 45.9129 4.10268 46.6165C4.10867 47.32 4.29937 48.0097 4.6557 48.6164C5.01126 49.2226 5.52031 49.7244 6.13155 50.0711C6.74279 50.4179 7.43464 50.5975 8.13737 50.5917C8.59169 50.618 9.04649 50.5491 9.47257 50.3892C9.89866 50.2294 10.2866 49.9823 10.6116 49.6636H10.6401V50.4425C10.6401 51.4908 9.74304 52.258 8.55992 52.258C8.10565 52.2937 7.64892 52.2342 7.21895 52.0833C6.78898 51.9324 6.39521 51.6935 6.06283 51.3818L4.68014 52.7161C5.19398 53.2259 5.80706 53.6247 6.48137 53.8878C7.15568 54.1508 7.87684 54.2726 8.60014 54.2455C11.0285 54.2455 12.6912 52.6072 12.6912 50.4308V42.5735H10.6396H10.6401Z" fill="black"/>
<path d="M23.3715 47.9455L25.3656 47.47C25.6685 48.4495 26.4286 48.9417 27.6514 48.9417C28.7602 48.9417 29.366 48.6959 29.366 48.2779C29.366 47.8594 28.8798 47.6303 27.4859 47.4124C24.7144 46.9777 23.7085 46.267 23.7085 44.9332C23.7085 43.5983 25.1029 42.5674 27.211 42.5674C29.1374 42.5674 30.8459 43.5296 31.2629 44.8583L29.3202 45.4311C29.1294 45.0404 28.8246 44.7168 28.446 44.5031C28.0674 44.2894 27.6329 44.1957 27.1998 44.2342C26.3089 44.2342 25.7489 44.4918 25.7489 44.8985C25.7489 45.3053 26.1659 45.4713 27.8286 45.7345C30.3715 46.1356 31.4176 46.829 31.4176 48.2321C31.4176 49.6351 29.9143 50.6085 27.6173 50.6085C25.3203 50.6085 23.7431 49.6122 23.3715 47.9455ZM32.1426 46.6223C32.1589 44.3355 34.0211 42.4946 36.3029 42.5104C38.5846 42.5257 40.4214 44.393 40.4062 46.6799V47.2867H34.24C34.3088 48.2835 35.1142 48.9188 36.3884 48.9188C36.8394 48.9134 37.2835 48.8079 37.6887 48.6098C38.0939 48.4117 38.45 48.126 38.7312 47.7734L40.0513 49.0909C39.5954 49.6011 39.032 50.0039 38.4017 50.2703C37.7714 50.5367 37.0899 50.66 36.4062 50.6314C33.7142 50.6487 32.1431 49.0507 32.1431 46.6223H32.1426ZM38.3433 45.7864C38.24 44.893 37.4514 44.3029 36.3202 44.3029C35.1885 44.3029 34.3831 44.8756 34.263 45.7864H38.3428H38.3433ZM41.543 42.7909H43.5946V43.5128H43.6231C44.3295 42.8849 45.2493 42.5509 46.194 42.5791C48.3714 42.5791 49.834 44.0051 49.834 46.0842V50.4369H47.7141V46.3469C47.7141 45.2015 46.9658 44.4745 45.7312 44.4745C44.4972 44.4745 43.6684 45.2417 43.6684 46.3469V50.4303H41.543V42.7909ZM50.8858 46.6111C50.8785 46.0775 50.9792 45.548 51.1816 45.0543C51.384 44.5605 51.6841 44.1127 52.0638 43.7378C52.443 43.3634 52.8942 43.0697 53.39 42.8745C53.8859 42.6793 54.4162 42.5866 54.9488 42.602C55.8444 42.5622 56.7232 42.8536 57.4174 43.4207H57.4459V39.9273H59.5658V50.4308H57.6002V49.6636H57.5717C57.236 49.9958 56.8339 50.2533 56.3917 50.4191C55.9495 50.5849 55.4772 50.6554 55.0059 50.6258C54.4668 50.6543 53.9277 50.5709 53.4225 50.3807C52.9173 50.1906 52.4569 49.8979 52.0704 49.5211C51.6833 49.1437 51.3783 48.6904 51.1745 48.1897C50.9706 47.689 50.8723 47.1516 50.8858 46.6111ZM57.4459 47.0693V46.1071C57.4459 45.1964 56.4517 44.446 55.2742 44.446C54.9781 44.42 54.6798 44.4571 54.3992 44.555C54.1185 44.6528 53.8618 44.8092 53.6461 45.0136C53.43 45.2185 53.2598 45.4667 53.1465 45.742C53.0332 46.0174 52.9795 46.3136 52.9888 46.6111C52.9764 46.9087 53.0281 47.2055 53.1406 47.4814C53.253 47.7572 53.4235 48.0056 53.6405 48.2097C53.8573 48.4134 54.1155 48.568 54.3976 48.6627C54.6796 48.7574 54.9788 48.7901 55.2747 48.7585C56.4802 48.7585 57.4459 48.0086 57.4459 47.0693Z" fill="#231F20"/>
<path d="M32.0112 37.2413C39.5854 37.2413 45.7256 31.0873 45.7256 23.4959C45.7256 15.9044 39.5854 9.7504 32.0112 9.7504C24.4369 9.7504 18.2968 15.9044 18.2968 23.4959C18.2968 31.0873 24.4369 37.2413 32.0112 37.2413Z" fill="#00AA13"/>
<path d="M39.4287 20.1511C39.4075 19.8775 39.327 19.6117 39.1927 19.3724C39.0585 19.133 38.8737 18.9257 38.6513 18.7649C38.2149 18.4427 37.769 18.1334 37.3144 17.8373C35.4629 18.6905 33.143 19.8818 31.2685 20.9127C30.9495 21.0861 30.6818 21.3404 30.4922 21.65C30.3027 21.9597 30.198 22.3138 30.1887 22.6767C30.1887 23.6445 30.1485 24.6128 30.1485 25.5806L28.7317 23.1807L27.3144 24.1312C27.3144 23.2148 27.3485 22.2934 27.3943 21.377C27.4124 21.0228 27.5206 20.6791 27.7085 20.3784C27.8965 20.0777 28.1581 19.8298 28.4685 19.6583C30.4402 18.5989 32.8686 17.2875 34.7542 16.3482C34.1234 16.0077 33.4813 15.6886 32.8288 15.3916C32.602 15.2954 32.358 15.2457 32.1115 15.2457C31.8651 15.2457 31.6211 15.2954 31.3942 15.3916C29.3254 16.2586 27.3528 17.3393 25.5086 18.6162C25.2872 18.7705 25.1023 18.9715 24.967 19.2051C24.8317 19.4386 24.7493 19.699 24.7256 19.9679C24.5275 22.0618 24.4855 24.1676 24.5999 26.2679C24.6294 26.7769 24.8646 27.2529 25.2515 27.5849C27.0232 29.1401 28.981 30.4695 31.0801 31.5425C31.5943 31.8001 32.2001 31.8001 32.7143 31.5425C34.7938 30.4669 36.773 29.2077 38.6284 27.7799C38.8394 27.6223 39.0146 27.4219 39.1427 27.1919C39.2708 26.9618 39.3488 26.7073 39.3717 26.445C39.5417 24.3511 39.5611 22.2476 39.4287 20.1511Z" fill="white"/>
</svg>
