<svg width="64" height="64" viewBox="0 0 64 64" fill="none" xmlns="http://www.w3.org/2000/svg">
<path d="M0 4C0 1.79086 1.79086 0 4 0H60C62.2091 0 64 1.79086 64 4V60C64 62.2091 62.2091 64 60 64H4C1.79086 64 0 62.2091 0 60V4Z" fill="white"/>
<g clip-path="url(#clip0)">
<path fill-rule="evenodd" clip-rule="evenodd" d="M40.8675 36.7998L44.3918 20H57.5557L56.6746 24.2013H50.0918L49.6504 26.3002H55.2509L54.3716 30.5014H48.771L48.3314 32.6003H54.9142L54.0331 36.7998H40.8675Z" fill="#1E3278"/>
<path fill-rule="evenodd" clip-rule="evenodd" d="M4 36.7998C15.7088 31.1993 31.5507 27.6296 46.0039 26.3002C49.9086 25.9407 53.7766 25.7401 59.1608 25.7401C59.3702 25.7401 59.7208 25.6703 60 25.6005L58.913 30.7806C58.8537 31.0597 58.3896 31.1993 58.0389 31.1993C25.0238 31.201 5.26143 36.7998 5.26143 36.7998H4Z" fill="#E01B22"/>
<path fill-rule="evenodd" clip-rule="evenodd" d="M21.7298 36.7998L25.2523 20H31.5525L35.3001 27.6314L36.9 20H43.2002L39.6776 36.7998H33.3775L29.6891 28.891L28.0317 36.7998H21.7298Z" fill="#1E3278"/>
<path fill-rule="evenodd" clip-rule="evenodd" d="M15.707 29.8L17.7623 20H24.0625L21.5972 31.7594C20.8348 35.3988 18.0013 36.7998 14.2415 36.7998H9.60056L10.6579 31.7594H12.7585C14.2973 31.7594 15.4139 31.201 15.707 29.8Z" fill="#1E3278"/>
<path d="M35.9073 42.3777L36.0399 41.4861H37.4409L37.5682 40.5422H36.169L36.2649 39.8356H37.7113L37.8387 38.8935H35.5897L34.993 43.3216H37.3484L37.4775 42.3777H35.9073Z" fill="#1E3278"/>
<path d="M40.8623 38.8935H39.8852L39.4246 39.7013C39.3549 39.8252 39.2746 39.9717 39.1821 40.1427C39.1106 39.9142 39.0705 39.7885 39.0635 39.7624L38.7721 38.8952H37.9364L38.643 41.0709L37.3746 43.3233H38.3708L38.7791 42.6115C38.8733 42.4457 38.9501 42.3062 39.0094 42.1945C39.0443 42.3114 39.0862 42.451 39.1368 42.6097L39.3671 43.3251H40.2516L39.5503 41.2349L40.8623 38.8935Z" fill="#1E3278"/>
<path d="M43.1129 40.0659C43.1129 39.8234 43.0763 39.6088 43.0048 39.4309C42.9297 39.2424 42.8216 39.1046 42.6872 39.0191C42.5546 38.9354 42.3767 38.8935 42.1586 38.8935H40.9547L40.3563 43.3216H41.1589L41.3752 41.7252H41.6247C41.8759 41.7252 42.0434 41.7147 42.1411 41.6938C42.3069 41.6589 42.4412 41.6048 42.5424 41.5332C42.6436 41.4635 42.7378 41.3588 42.8233 41.2262C42.9071 41.0953 42.9768 40.9261 43.0327 40.7115C43.0833 40.5039 43.1129 40.2858 43.1129 40.0659ZM41.6282 39.8252H41.9196C42.1516 39.8252 42.2039 39.8513 42.2092 39.8531C42.2388 39.8688 42.2615 39.8967 42.279 39.9386C42.2999 39.9874 42.3121 40.0537 42.3121 40.1375C42.3121 40.2701 42.2877 40.3922 42.2388 40.5021C42.1917 40.6051 42.1324 40.6766 42.0574 40.7202C42.0138 40.7464 41.8847 40.79 41.5305 40.79H41.4991L41.6282 39.8252Z" fill="#1E3278"/>
<path d="M45.2363 41.7688C45.1961 41.6659 45.1543 41.5751 45.1124 41.4966C45.3444 41.4164 45.5259 41.2681 45.6515 41.0552C45.7998 40.8057 45.8748 40.4882 45.8748 40.1131C45.8748 39.8496 45.8364 39.6193 45.7597 39.4309C45.6794 39.2302 45.5678 39.0889 45.4282 39.0104C45.2938 38.9336 45.1159 38.8953 44.8856 38.8953H43.5788L42.9803 43.3233H43.7829L44.0167 41.5908H44.1371C44.2679 41.5908 44.3133 41.6222 44.3238 41.6345C44.3744 41.6885 44.4511 41.8177 44.5384 42.13C44.6762 42.6237 44.7704 42.9936 44.8193 43.2256L44.8385 43.3233H45.6916L45.6532 43.1716C45.5032 42.5696 45.3619 42.0986 45.2363 41.7688ZM44.254 39.8357H44.76C44.9519 39.8357 44.9955 39.8706 44.9955 39.8706C45.0496 39.9229 45.0775 40.0084 45.0775 40.1253C45.0775 40.2369 45.0531 40.3434 45.006 40.4446C44.9606 40.5405 44.903 40.6068 44.8263 40.6504C44.7826 40.6749 44.6535 40.7167 44.2924 40.7167H44.1371L44.254 39.8357Z" fill="#1E3278"/>
<path d="M48.2895 41.4861L48.4151 40.5422H47.0176L47.1136 39.8356H48.5599L48.6873 38.8935H46.4384L45.8417 43.3216H48.197L48.3261 42.3777H46.7559L46.8885 41.4861H48.2895Z" fill="#1E3278"/>
<path d="M49.9679 39.7484C50.0866 39.7484 50.1668 39.7833 50.2244 39.8601C50.289 39.9473 50.3291 40.0799 50.3396 40.2544L50.3483 40.3765L51.1212 40.3224L51.116 40.2038C51.0968 39.7973 50.9921 39.4658 50.8054 39.2163C50.6082 38.9546 50.3273 38.822 49.9714 38.822C49.619 38.822 49.3451 38.9563 49.1566 39.2215C48.9787 39.4727 48.8879 39.792 48.8879 40.1689C48.8879 40.3835 48.9176 40.5754 48.9787 40.7394C49.0397 40.9069 49.127 41.0447 49.2351 41.1512C49.3381 41.2523 49.4934 41.371 49.7115 41.5175C49.9697 41.6903 50.0447 41.7653 50.0674 41.7967C50.1162 41.8613 50.1407 41.9398 50.1407 42.0357C50.1407 42.1509 50.1093 42.2451 50.0464 42.3253C49.9889 42.3969 49.8912 42.4318 49.7464 42.4318C49.5178 42.4318 49.441 42.341 49.4026 42.2713C49.38 42.2294 49.3398 42.1125 49.3311 41.7984L49.3276 41.6693L48.5599 41.7321L48.5582 41.8421C48.553 42.1334 48.5879 42.3969 48.6611 42.6237C48.7396 42.8627 48.8757 43.0529 49.0659 43.189C49.2561 43.3251 49.4829 43.3931 49.7394 43.3931C50.1162 43.3931 50.4146 43.2448 50.6257 42.95C50.8281 42.6691 50.931 42.3253 50.931 41.9328C50.931 41.6118 50.8612 41.3413 50.7217 41.132C50.6274 40.9872 50.4216 40.8109 50.0935 40.5928C49.851 40.4306 49.7586 40.3399 49.7219 40.291C49.6783 40.2334 49.6574 40.1619 49.6574 40.0677C49.6574 39.9665 49.6818 39.888 49.7306 39.8252C49.776 39.7746 49.8545 39.7484 49.9679 39.7484Z" fill="#1E3278"/>
<path d="M52.7019 40.5928C52.4594 40.4306 52.3669 40.3398 52.3303 40.291C52.2866 40.2334 52.2657 40.1619 52.2657 40.0677C52.2657 39.9665 52.2901 39.888 52.339 39.8251C52.3809 39.7728 52.4594 39.7466 52.5728 39.7466C52.6914 39.7466 52.7717 39.7815 52.8292 39.8583C52.8938 39.9455 52.9339 40.0781 52.9444 40.2526L52.9531 40.3747L53.726 40.3206L53.7208 40.202C53.7016 39.7955 53.5969 39.464 53.4102 39.2145C53.2131 38.9528 52.9322 38.8202 52.5763 38.8202C52.2238 38.8202 51.9499 38.9545 51.7615 39.2197C51.5835 39.471 51.4928 39.7903 51.4928 40.1671C51.4928 40.3817 51.5225 40.5736 51.5835 40.7376C51.6446 40.9051 51.7318 41.043 51.84 41.1494C51.9429 41.2506 52.0982 41.3692 52.3163 41.5158C52.5745 41.6885 52.6495 41.7635 52.6722 41.7949C52.7211 41.8595 52.7455 41.938 52.7455 42.034C52.7455 42.1491 52.7141 42.2433 52.6513 42.3236C52.5937 42.3951 52.496 42.43 52.3512 42.43C52.1226 42.43 52.0459 42.3393 52.0075 42.2695C51.9848 42.2276 51.9447 42.1107 51.936 41.7967L51.9325 41.6676L51.1648 41.7304L51.163 41.8403C51.1578 42.1317 51.1927 42.3951 51.266 42.6219C51.3445 42.8609 51.4806 43.0511 51.6708 43.1872C51.8609 43.3233 52.0877 43.3913 52.3442 43.3913C52.7211 43.3913 53.0194 43.243 53.2305 42.9482C53.4329 42.6673 53.5359 42.3236 53.5359 41.931C53.5359 41.61 53.4661 41.3396 53.3265 41.1302C53.234 40.9871 53.0282 40.8109 52.7019 40.5928Z" fill="#1E3278"/>
</g>
<defs>
<clipPath id="clip0">
<rect width="56" height="23.3931" fill="white" transform="translate(4 20)"/>
</clipPath>
</defs>
</svg>
