<svg width="64" height="64" viewBox="0 0 64 64" fill="none" xmlns="http://www.w3.org/2000/svg">
<rect width="64" height="64" rx="4" fill="#0D2B5B"/>
<path d="M4.05792 35.2092C4.05792 34.399 4.04376 33.7207 4 33.1139H5.53228L5.605 34.1551H5.64747C5.99435 33.6055 6.63017 32.9543 7.81558 32.9543C8.74099 32.9543 9.46305 33.4755 9.7668 34.2555H9.79641C10.0422 33.8655 10.3306 33.5759 10.6626 33.3745C11.0533 33.0991 11.5024 32.9543 12.0797 32.9543C13.251 32.9543 14.4351 33.749 14.4351 36.0053V40.1523H12.7007V36.264C12.7007 35.094 12.2959 34.399 11.4432 34.399C10.8364 34.399 10.3878 34.8341 10.2006 35.3399C10.1484 35.5329 10.1193 35.7314 10.1137 35.9313V40.153H8.37932V36.0755C8.37932 35.0947 7.98933 34.3997 7.16495 34.3997C6.50146 34.3997 6.05355 34.9209 5.89267 35.4113C5.82123 35.5851 5.79163 35.7884 5.79163 35.9892V40.153H4.05792V35.2092ZM21.1929 38.4624C21.1929 39.0975 21.2219 39.7186 21.2933 40.153H19.689L19.5738 39.373H19.53C19.0963 39.9226 18.3588 40.3113 17.4501 40.3113C16.033 40.3113 15.2382 39.2861 15.2382 38.2159C15.2382 36.4365 16.8123 35.542 19.4155 35.5561V35.4409C19.4155 34.9776 19.2269 34.2117 17.9836 34.2117C17.2892 34.2117 16.5671 34.4293 16.0903 34.7317L15.7434 33.5753C16.264 33.2567 17.1746 32.9536 18.2867 32.9536C20.5423 32.9536 21.1936 34.3861 21.1936 35.9165L21.1929 38.4624ZM19.4579 36.7139C18.1998 36.6842 17.0009 36.959 17.0009 38.0286C17.0009 38.7224 17.4501 39.0409 18.0132 39.0409C18.7204 39.0409 19.2417 38.5769 19.4007 38.0717C19.4396 37.9454 19.4591 37.8139 19.4586 37.6817V36.7139H19.4579ZM22.4208 35.2092C22.4208 34.399 22.406 33.7207 22.3642 33.1139H23.9235L24.0097 34.1706H24.0535C24.3566 33.6203 25.1231 32.9543 26.2937 32.9543C27.5228 32.9543 28.7938 33.749 28.7938 35.9763V40.1523H27.0164V36.1784C27.0164 35.1668 26.6399 34.3984 25.672 34.3984C24.9648 34.3984 24.4718 34.9048 24.2845 35.4403C24.2266 35.5986 24.2125 35.8161 24.2125 36.0169V40.1517H22.4202L22.4208 35.2092ZM36.5022 30.2861V38.1728C36.5022 38.8955 36.5318 39.6774 36.5601 40.153H34.9712L34.8985 39.0409H34.8689C34.4506 39.8209 33.5966 40.3119 32.5715 40.3119C30.8944 40.3119 29.5655 38.8813 29.5655 36.7145C29.55 34.3578 31.0237 32.9549 32.7163 32.9549C33.6841 32.9549 34.3779 33.3597 34.6958 33.8823H34.726V30.2868H36.5029V30.2861H36.5022ZM34.7254 36.0478C34.7254 35.9043 34.7112 35.7305 34.6816 35.5851C34.5227 34.8926 33.9602 34.3282 33.15 34.3282C32.0084 34.3282 31.3712 35.3405 31.3712 36.6553C31.3712 37.9404 32.0077 38.8807 33.1358 38.8807C33.8573 38.8807 34.4937 38.3884 34.6668 37.6225C34.7106 37.4642 34.726 37.2898 34.726 37.1026V36.0478H34.7254ZM37.7597 40.153V33.1139H39.5533V40.153H37.7597ZM40.8095 35.3836C40.8095 34.4299 40.796 33.7497 40.7528 33.1145H42.2993L42.3559 34.4576H42.4145C42.7613 33.4607 43.5844 33.1145 44.338 33.1145C44.5111 33.1145 44.6115 33.0849 44.7557 33.1145V34.6764C44.5851 34.6386 44.411 34.6192 44.2363 34.6185C43.3817 34.6185 42.8038 35.1681 42.6455 35.9615C42.6105 36.1432 42.5913 36.3275 42.5882 36.5124V40.1536H40.8095V35.3836ZM45.5807 40.153V33.1139H47.3717V40.153H45.5807Z" fill="white"/>
<path d="M58.5282 25.6693C57.6408 24.657 56.6973 25.1152 55.9476 25.4879C55.6323 25.6436 53.356 26.9339 53.356 26.9339C52.1088 27.4481 51.1377 26.8869 50.7568 26.4146C50.7203 26.3698 50.6874 26.3222 50.6583 26.2723L50.5695 26.1185C50.4194 25.8589 50.2526 25.6093 50.0701 25.3714C49.9594 25.2271 49.8394 25.0902 49.711 24.9614C48.8577 24.0997 47.494 23.4967 45.2146 24.592C44.1353 25.2176 40.6196 27.2261 40.6196 27.2261C39.2984 27.7699 38.2881 27.1077 37.9599 26.6218C37.9451 26.6036 37.9322 26.584 37.9213 26.5632L37.8781 26.4899L37.6555 26.1256C37.555 25.9661 37.4472 25.8112 37.3324 25.6616C37.2206 25.5183 37.1005 25.3816 36.9727 25.2523C36.1251 24.3958 34.7685 23.794 32.5091 24.8688C31.1428 25.6487 27.965 27.4655 27.965 27.4655L27.9637 27.4668L25.6379 28.7957L26.8414 30.2733C27.3478 30.7559 28.2996 31.5475 29.7721 30.8801C29.7721 30.8801 33.836 28.5267 33.8521 28.5196C37.3266 26.6128 39.041 28.4346 39.7991 29.649C39.8255 29.687 39.8467 29.7282 39.8706 29.7649L39.8718 29.7668C39.8815 29.7816 39.8873 29.7951 39.8957 29.8093L39.9813 29.9496C40.3506 30.5094 40.9331 30.8711 41.6274 30.8544C42.0103 30.8467 42.2703 30.7218 42.6487 30.5114L46.5808 28.2306L46.5892 28.2268C50.1074 26.2968 51.8508 28.2377 52.5954 29.4521C52.6533 29.557 52.7189 29.6574 52.7865 29.7507C53.1553 30.2507 53.6637 30.5783 54.3098 30.5622C54.7364 30.5538 55.2146 30.2977 55.286 30.2507L60 27.5298C60.0013 27.5311 59.5199 26.8033 58.5282 25.6693Z" fill="#FDD213"/>
</svg>