<svg width="80" height="80" viewBox="0 0 80 80" fill="none" xmlns="http://www.w3.org/2000/svg">
<g filter="url(#filter0_d)">
<rect x="8" y="4" width="64" height="64" rx="4" fill="white"/>
</g>
<path d="M22.1618 57.2907V54.4079C22.1618 53.3024 21.4889 52.5819 20.3845 52.5819C19.8045 52.5819 19.1838 52.7745 18.7511 53.394C18.4147 52.865 17.9391 52.5819 17.214 52.5819C16.9444 52.5703 16.6762 52.6257 16.4332 52.7431C16.1903 52.8605 15.9803 53.0363 15.8219 53.2548V52.6747H14.9089V57.2872H15.8219V54.648C15.8219 53.836 16.3022 53.4474 16.975 53.4474C17.6479 53.4474 18.0319 53.8801 18.0319 54.648V57.2907H18.9449V54.648C18.9449 53.836 19.4251 53.4474 20.098 53.4474C20.7708 53.4474 21.1548 53.8801 21.1548 54.648V57.2907H22.1618ZM37.1523 52.7258H35.4702V51.3337H34.5595V52.7258H33.599V53.5378H34.5595V55.7049C34.5595 56.7617 34.9435 57.387 36.0966 57.387C36.5335 57.3779 36.9615 57.2624 37.3437 57.0506L37.0549 56.2385C36.7957 56.4005 36.4951 56.4839 36.1894 56.4787C35.7092 56.4787 35.469 56.1898 35.469 55.7095V53.5007H37.1511V52.7316L37.1523 52.7258ZM45.7044 52.5819C45.4557 52.5764 45.2099 52.6355 44.9909 52.7534C44.7719 52.8714 44.5872 53.0441 44.455 53.2548V52.6747H43.542V57.2872H44.455V54.6968C44.455 53.9276 44.839 53.4474 45.4643 53.4474C45.6753 53.4559 45.8846 53.4882 46.0884 53.5436L46.3773 52.6782C46.157 52.6227 45.9314 52.5904 45.7044 52.5819ZM32.78 53.0622C32.2997 52.7258 31.6268 52.5819 30.9064 52.5819C29.7533 52.5819 29.0329 53.1109 29.0329 54.0239C29.0329 54.7931 29.5619 55.2246 30.57 55.3696L31.0503 55.4172C31.5793 55.5135 31.9157 55.706 31.9157 55.9462C31.9157 56.2826 31.5317 56.5262 30.8101 56.5262C30.2592 56.5375 29.7195 56.3689 29.273 56.0459L28.7928 56.7663C29.4656 57.2466 30.2823 57.3464 30.7649 57.3464C32.1106 57.3464 32.831 56.7223 32.831 55.8568C32.831 55.0448 32.251 54.6562 31.2452 54.5112L30.7649 54.4636C30.3322 54.416 29.9528 54.271 29.9528 53.9833C29.9528 53.6469 30.3368 53.4033 30.8658 53.4033C31.4459 53.4033 32.0189 53.6434 32.3078 53.7873L32.78 53.0622ZM46.7137 54.9845C46.7137 56.3766 47.6267 57.387 49.1162 57.387C49.7891 57.387 50.2693 57.2431 50.7496 56.858L50.2693 56.1376C49.9293 56.413 49.5062 56.5654 49.0686 56.5703C48.2566 56.5703 47.6267 55.9462 47.6267 55.0332C47.6267 54.1202 48.2485 53.5007 49.0686 53.5007C49.5062 53.5056 49.9293 53.658 50.2693 53.9334L50.7496 53.213C50.2693 52.829 49.7891 52.684 49.1162 52.684C47.6742 52.5877 46.7137 53.597 46.7137 54.9903V54.9845ZM40.2752 52.5819C38.9295 52.5819 38.0166 53.5425 38.0166 54.9845C38.0166 56.4264 38.9771 57.387 40.3704 57.387C41.0482 57.4013 41.7101 57.1808 42.2439 56.7629L41.7636 56.09C41.3776 56.3892 40.9062 56.5574 40.4179 56.5703C39.7938 56.5703 39.121 56.1863 39.0258 55.3696H42.4376V54.9856C42.4376 53.5436 41.5722 52.5831 40.2752 52.5831V52.5819ZM40.2277 53.4474C40.9005 53.4474 41.3808 53.8801 41.4284 54.6005H38.9307C39.0746 53.9276 39.5107 53.4474 40.2277 53.4474ZM27.7835 54.9845V52.6782H26.8705V53.2583C26.5341 52.8256 26.0585 52.5854 25.381 52.5854C24.084 52.5854 23.1223 53.5947 23.1223 54.9879C23.1223 56.3812 24.0828 57.3905 25.381 57.3905C26.0538 57.3905 26.5341 57.1503 26.8705 56.7176V57.2977H27.7835V54.9845ZM24.084 54.9845C24.084 54.119 24.613 53.4474 25.526 53.4474C26.3914 53.4474 26.9181 54.1202 26.9181 54.9845C26.9181 55.8975 26.338 56.5216 25.526 56.5216C24.613 56.5691 24.084 55.8487 24.084 54.9845ZM59.5917 52.5819C59.3431 52.5764 59.0972 52.6355 58.8782 52.7534C58.6592 52.8714 58.4746 53.0441 58.3423 53.2548V52.6747H57.4293V57.2872H58.3412V54.6968C58.3412 53.9276 58.7251 53.4474 59.3504 53.4474C59.5614 53.4559 59.7708 53.4882 59.9746 53.5436L60.2634 52.6782C60.0431 52.6227 59.8176 52.5904 59.5906 52.5819H59.5917ZM56.0361 54.9845V52.6782H55.1231V53.2583C54.7867 52.8256 54.311 52.5854 53.6336 52.5854C52.3366 52.5854 51.3749 53.5947 51.3749 54.9879C51.3749 56.3812 52.3354 57.3905 53.6336 57.3905C54.3064 57.3905 54.7867 57.1503 55.1231 56.7176V57.2977H56.0361V54.9845ZM52.3366 54.9845C52.3366 54.119 52.8656 53.4474 53.7786 53.4474C54.644 53.4474 55.1707 54.1202 55.1707 54.9845C55.1707 55.8975 54.5906 56.5216 53.7786 56.5216C52.8656 56.5691 52.3366 55.8487 52.3366 54.9845ZM65.3098 54.9845V50.8523H64.3968V53.2548C64.0604 52.8221 63.5847 52.5819 62.9072 52.5819C61.6103 52.5819 60.6486 53.5912 60.6486 54.9845C60.6486 56.3777 61.6091 57.387 62.9072 57.387C63.5801 57.387 64.0604 57.1469 64.3968 56.7141V57.2942H65.3098V54.9845ZM61.6103 54.9845C61.6103 54.119 62.1393 53.4474 63.0522 53.4474C63.9177 53.4474 64.4443 54.1202 64.4443 54.9845C64.4443 55.8975 63.8643 56.5216 63.0522 56.5216C62.1381 56.5703 61.6091 55.8499 61.6091 54.9845H61.6103Z" fill="black"/>
<path d="M48.3958 17.6995H31.7231V44.8941H48.3958V17.6995Z" fill="#FF5F00"/>
<path d="M33.4053 31.2968C33.4058 28.6807 33.9982 26.0986 35.1381 23.7438C36.2781 21.3891 37.9359 19.3227 39.9876 17.6995C37.436 15.6934 34.3716 14.4457 31.1444 14.099C27.9173 13.7523 24.6577 14.3206 21.7383 15.7389C18.8188 17.1573 16.3574 19.3684 14.6353 22.1196C12.9132 24.8708 12 28.0511 12 31.2968C12 34.5425 12.9132 37.7227 14.6353 40.474C16.3574 43.2252 18.8188 45.4363 21.7383 46.8547C24.6577 48.273 27.9173 48.8413 31.1444 48.4946C34.3716 48.1479 37.436 46.9002 39.9876 44.8941C37.9359 43.2709 36.2781 41.2045 35.1381 38.8498C33.9982 36.495 33.4058 33.9129 33.4053 31.2968Z" fill="#EB001B"/>
<path d="M67.9999 31.2968C68.0023 34.5402 67.0917 37.7187 65.3725 40.4689C63.6532 43.2191 61.1946 45.4299 58.2779 46.8484C55.3612 48.2669 52.1042 48.8359 48.8793 48.4903C45.6544 48.1447 42.5919 46.8985 40.042 44.8941C42.0941 43.2713 43.7523 41.205 44.8923 38.8502C46.0323 36.4954 46.6245 33.9131 46.6245 31.2968C46.6245 28.6805 46.0323 26.0982 44.8923 23.7434C43.7523 21.3886 42.0941 19.3223 40.042 17.6995C42.5919 15.6951 45.6544 14.4489 48.8793 14.1033C52.1042 13.7577 55.3612 14.3267 58.2779 15.7452C61.1946 17.1637 63.6532 19.3745 65.3725 22.1247C67.0917 24.8749 68.0023 28.0534 67.9999 31.2968Z" fill="#F79E1B"/>
</svg>
