<svg width="64" height="64" viewBox="0 0 64 64" fill="none" xmlns="http://www.w3.org/2000/svg">
<rect width="64" height="64" rx="4" fill="white"/>
<path fill-rule="evenodd" clip-rule="evenodd" d="M33.2826 33.293C33.2874 33.2065 33.2923 33.068 33.2968 32.878V29.2358L33.285 28.8824C33.2821 28.8073 33.2785 28.7562 33.2748 28.7295C33.2709 28.7012 33.2648 28.6768 33.2565 28.6543C33.2292 28.5644 33.1687 28.501 33.0778 28.463C32.994 28.4277 32.8701 28.4107 32.7092 28.4093V28.2854H34.7892C35.0915 28.286 35.3647 28.3056 35.6086 28.3449C35.8522 28.3839 36.0484 28.4379 36.1985 28.5065C36.6333 28.7127 36.8481 29.0598 36.8458 29.5536C36.8507 30.2593 36.3866 30.7101 35.4257 30.8262L35.2646 30.8521C35.4807 30.8599 35.7731 30.932 35.909 30.9634C36.0439 30.9946 36.1762 31.0441 36.3059 31.1117C36.8159 31.3679 37.0671 31.7776 37.0621 32.3442C37.0648 33.0323 36.7292 33.4798 36.0481 33.6912C35.8993 33.7336 35.7128 33.7671 35.4873 33.7915C35.2609 33.8159 35.0152 33.8284 34.7504 33.8289H32.7092V33.7048C32.9494 33.7019 33.1147 33.6652 33.1878 33.579C33.2185 33.5497 33.2402 33.5175 33.2546 33.4805C33.2693 33.4431 33.2779 33.3792 33.2826 33.293ZM33.9234 28.4557V30.7672H34.7349C35.6788 30.7617 36.1676 30.3696 36.1728 29.5845C36.1794 28.8225 35.6641 28.4505 34.6653 28.4557H33.9234ZM36.3352 32.2824C36.33 31.7435 36.1351 31.3626 35.7466 31.1497C35.6287 31.0894 35.4789 31.0431 35.2989 31.0103C35.1192 30.9778 34.9209 30.9613 34.704 30.9605H33.9234V33.6584H34.704C35.2696 33.661 35.6829 33.5555 35.9376 33.3341C36.0667 33.228 36.1647 33.0839 36.2328 32.9032C36.3006 32.7224 36.3344 32.515 36.3352 32.2824Z" fill="#3A3A3A"/>
<path d="M40.0389 33.6708C39.9968 33.5872 39.9672 33.4879 39.9543 33.2341L39.9507 33.1589L39.9006 33.2152C39.8412 33.2825 39.7827 33.3407 39.7256 33.3902C39.6683 33.4402 39.6017 33.4913 39.5271 33.5432C39.3628 33.6637 39.2046 33.7486 39.0529 33.7981C38.9013 33.8473 38.7302 33.8714 38.5398 33.8698C38.2081 33.8711 37.9535 33.7926 37.7715 33.6377C37.6696 33.5461 37.5897 33.4311 37.5312 33.2914C37.4728 33.1521 37.443 33.0022 37.4417 32.8414C37.4456 32.2483 37.8097 31.8656 38.5544 31.6961C38.7514 31.6506 38.9597 31.6131 39.1787 31.5838C39.3985 31.5544 39.6473 31.5303 39.9258 31.5115L39.9543 30.9941C39.9549 30.8173 39.9462 30.674 39.9289 30.5647C39.9116 30.4542 39.8831 30.3578 39.843 30.2763C39.7325 30.061 39.5072 29.9578 39.1816 29.9578C38.6592 29.9552 38.376 30.2038 38.3467 30.6983C38.3436 30.7769 38.3362 30.8322 38.326 30.8657C38.3161 30.8972 38.299 30.9205 38.2749 30.9375C38.2231 30.9723 38.1403 30.9925 38.0214 30.9938C37.7654 30.9978 37.6696 30.9215 37.6737 30.7934C37.6753 30.6593 37.7198 30.5296 37.8092 30.4047C37.8985 30.2792 38.0229 30.1702 38.1838 30.0772C38.473 29.9169 38.8434 29.8352 39.2976 29.8339C39.7945 29.8352 40.1277 29.9478 40.3098 30.1629C40.3834 30.2535 40.4382 30.3654 40.4738 30.5008C40.5092 30.6363 40.5272 30.8078 40.527 31.0166L40.5262 31.0609L40.5222 31.2631L40.5115 31.7972L40.5036 32.5318L40.4961 32.8875C40.4966 33.0549 40.5036 33.1825 40.5152 33.3252C40.5267 33.4643 40.5765 33.6194 40.6878 33.6605C40.8039 33.7035 40.9154 33.7205 41.1279 33.7218C41.284 33.7187 41.4043 33.7009 41.4857 33.6663C41.5787 33.6267 41.6358 33.5429 41.6604 33.424C41.6845 33.3079 41.695 33.1314 41.6924 32.8948V30.8217C41.6976 30.5396 41.6649 30.341 41.5845 30.2373C41.5059 30.1359 41.3597 30.0922 41.1588 30.0943V29.9843L42.2648 29.9036V30.7845L42.3224 30.6818C42.4861 30.3903 42.6719 30.1841 42.8785 30.0602C43.0852 29.9363 43.3443 29.875 43.6563 29.8782C44.1252 29.8719 44.4518 30.029 44.6431 30.3431C44.713 30.4482 44.7641 30.575 44.7945 30.7232C44.8249 30.8718 44.8401 31.0617 44.8393 31.293V32.8948C44.8364 33.1337 44.8463 33.3116 44.8694 33.4271C44.893 33.5461 44.9496 33.6296 45.0428 33.6681C45.1198 33.6998 45.2995 33.7171 45.4528 33.7213C45.5963 33.7169 45.7074 33.6993 45.7834 33.666C45.874 33.6265 45.9287 33.5424 45.9521 33.4235C45.9746 33.3079 45.9843 33.1311 45.9814 32.8948V29.1284C45.9843 28.9126 45.9754 28.7525 45.9536 28.6493C45.9311 28.5417 45.8756 28.4675 45.7847 28.4356C45.7058 28.4078 45.5877 28.3947 45.4326 28.3942V28.2839L46.5829 28.2252C46.5684 28.4806 46.5574 28.7418 46.5501 29.0087C46.5423 29.2874 46.5386 29.5308 46.5386 29.7391V32.2693L47.8059 30.8807C47.9851 30.6821 48.0831 30.5152 48.0844 30.3816C48.0936 30.1956 47.9057 30.1116 47.5974 30.0961V29.9863H49.2443V30.0979C49.1453 30.1095 49.0591 30.1275 48.986 30.1527C48.9064 30.1797 48.8247 30.219 48.7414 30.2693C48.6568 30.3203 48.586 30.3672 48.5287 30.4099C48.4702 30.4537 48.4013 30.5158 48.322 30.5964C48.2426 30.6769 48.1279 30.7989 47.977 30.9629L47.5586 31.4132L48.6536 33.1356C48.7786 33.3396 48.8936 33.484 48.9991 33.566C49.1 33.644 49.2286 33.6943 49.3834 33.7182V33.8308H48.382C48.3545 33.7747 48.3167 33.7022 48.2685 33.6131L48.1093 33.3226L47.9875 33.1039L47.177 31.7831L46.5402 32.4956L46.5386 32.8948C46.5357 33.1311 46.5454 33.3079 46.5682 33.4237C46.5918 33.5427 46.6473 33.6267 46.7392 33.6663C46.8197 33.7006 46.9394 33.7187 47.095 33.7218V33.8308H43.7102V33.7216C43.9395 33.7153 44.0969 33.6778 44.16 33.5943C44.1854 33.5618 44.2046 33.5248 44.2179 33.4835C44.2315 33.4418 44.2397 33.3881 44.2436 33.3226C44.248 33.2707 44.2528 33.1961 44.258 33.0979C44.2635 32.9994 44.2664 32.9315 44.2669 32.8954V31.3396C44.2682 30.9558 44.2271 30.6719 44.1401 30.4914C44.0084 30.2074 43.77 30.0652 43.4321 30.0639C43.0554 30.0626 42.7549 30.242 42.5322 30.5964C42.4484 30.7303 42.3834 30.8828 42.3366 31.0528C42.2894 31.2233 42.2656 31.391 42.2648 31.556V32.8948C42.2619 33.1337 42.2719 33.3116 42.2949 33.4271C42.3185 33.5461 42.3748 33.6296 42.4681 33.6681C42.5495 33.7017 42.6708 33.719 42.829 33.7218V33.8308L41.1643 33.8305C41.0166 33.8355 40.7355 33.8431 40.5961 33.8413C40.4499 33.8392 40.3795 33.8237 40.2461 33.8138C40.1277 33.7792 40.078 33.7483 40.0389 33.6708ZM38.0761 32.8183C38.079 33.0704 38.1403 33.2752 38.2626 33.4298C38.3852 33.5851 38.5513 33.6647 38.7561 33.6687C38.9631 33.6658 39.1588 33.6118 39.3419 33.507C39.5245 33.4022 39.6683 33.2626 39.7725 33.0889C39.8362 32.9781 39.8826 32.8356 39.9116 32.663C39.9404 32.4912 39.9549 32.2774 39.9543 32.022V31.6251C39.5837 31.6571 39.3186 31.6919 39.1258 31.7328C38.9317 31.7739 38.7603 31.8326 38.611 31.9094C38.2566 32.0854 38.0787 32.3906 38.0761 32.8183Z" fill="#3A3A3A"/>
<path fill-rule="evenodd" clip-rule="evenodd" d="M5.50782 31.4953V32.8745C5.50494 33.0958 5.51751 33.2601 5.5458 33.3672C5.57435 33.4746 5.63565 33.5454 5.73022 33.5799C5.82478 33.6148 5.96991 33.6342 6.16559 33.6381V33.8306H4V33.6381C4.18468 33.6342 4.32116 33.6148 4.4097 33.5799C4.49824 33.5454 4.55561 33.4746 4.5818 33.3672C4.608 33.2601 4.61953 33.0958 4.61664 32.8745V29.249C4.61953 29.0277 4.608 28.8632 4.58285 28.7558C4.55744 28.6484 4.50243 28.5768 4.41782 28.5412C4.33295 28.5053 4.20302 28.4844 4.02724 28.4778V28.285H6.09041C6.7859 28.2821 7.29514 28.405 7.61892 28.6531C7.94243 28.9014 8.10223 29.2928 8.09856 29.8272C8.10065 30.5784 7.80831 31.0701 7.22127 31.3025C7.06802 31.3625 6.87261 31.4094 6.63527 31.4434C6.39794 31.4772 6.13415 31.4945 5.84364 31.4953H5.50782ZM5.50782 31.2802H5.86434C6.29264 31.2789 6.60777 31.1775 6.81 30.9764C6.92002 30.8598 7.00332 30.7073 7.06017 30.5185C7.11701 30.3299 7.14556 30.1143 7.14583 29.8717C7.14347 28.9585 6.74372 28.5014 5.94633 28.5001H5.50782V31.2802Z" fill="#3A3A3A"/>
<path fill-rule="evenodd" clip-rule="evenodd" d="M11.5853 31.7281H9.06526C9.06814 31.9969 9.08385 32.2224 9.11267 32.4045C9.14122 32.5863 9.18733 32.7526 9.25072 32.9033C9.46002 33.391 9.78328 33.6347 10.2207 33.6347C10.4686 33.6333 10.6933 33.5605 10.8948 33.4159C11.0965 33.2713 11.2638 33.0636 11.3977 32.7922L11.5761 32.9106C11.4006 33.2598 11.1863 33.5162 10.9333 33.68C10.6802 33.8437 10.3714 33.9246 10.0067 33.9231C9.43304 33.9157 8.90572 33.7324 8.57514 33.3735C8.24481 33.0143 8.07637 32.5224 8.06982 31.8981C8.07637 31.2692 8.23931 30.7717 8.55837 30.4053C8.87717 30.039 9.38668 29.8518 9.93547 29.8436C10.3006 29.8447 10.653 29.9277 10.9031 30.093C11.1533 30.2586 11.3377 30.5006 11.4569 30.8192C11.4957 30.925 11.525 31.046 11.5452 31.1822C11.5651 31.3184 11.5785 31.5005 11.5853 31.7281ZM9.07233 31.5139H10.6488C10.6425 31.286 10.6302 31.1023 10.6121 30.9632C10.5943 30.8241 10.566 30.6997 10.5275 30.5902C10.3944 30.202 10.1898 30.01 9.91425 30.0136C9.60515 30.0163 9.37436 30.2329 9.22217 30.6641C9.1834 30.7757 9.15222 30.898 9.12865 31.0308C9.10507 31.1636 9.08621 31.3247 9.07233 31.5139Z" fill="#3A3A3A"/>
<path d="M11.7464 29.9494L13.1442 29.8527C13.1515 29.9921 13.1573 30.1094 13.161 30.204C13.1646 30.2988 13.1665 30.3827 13.1665 30.455V30.6782C13.4701 30.1231 13.8368 29.8428 14.2669 29.8378C14.4527 29.8415 14.6035 29.8957 14.7196 30.0005C14.8354 30.1053 14.8954 30.2396 14.8988 30.4031C14.8962 30.5391 14.8459 30.648 14.7481 30.73C14.6507 30.8123 14.5226 30.8544 14.3636 30.8565C14.1726 30.8626 14.0563 30.7835 14.0141 30.6187C13.9866 30.5168 13.9581 30.4474 13.9285 30.4104C13.8991 30.3735 13.8557 30.3562 13.7986 30.3583H13.7836C13.6375 30.3709 13.4986 30.4872 13.3674 30.7078C13.3079 30.818 13.2631 30.9396 13.2333 31.0732C13.2037 31.2065 13.1887 31.3598 13.1887 31.5332V32.9087C13.1858 33.1282 13.1966 33.2901 13.2207 33.3941C13.2448 33.4981 13.2995 33.5662 13.3849 33.5984C13.4701 33.6304 13.6031 33.6485 13.7836 33.6521V33.8308H11.7168V33.6521C11.8852 33.6529 12.0099 33.6367 12.0911 33.6031C12.1723 33.5699 12.225 33.5002 12.2494 33.3941C12.2735 33.2878 12.2842 33.1261 12.2818 32.9087V30.8489C12.2886 30.5425 12.258 30.3434 12.1896 30.2514C12.1215 30.1595 11.9735 30.1184 11.7464 30.1278V29.9494Z" fill="#3A3A3A"/>
<path d="M16.5593 29.853L16.5669 30.5891C16.8679 30.0935 17.2991 29.843 17.8605 29.8381C18.4318 29.8344 18.7836 30.0945 18.9162 30.6189C19.0778 30.3489 19.2622 30.1508 19.4691 30.0248C19.6763 29.8991 19.9181 29.8367 20.195 29.8381C20.6325 29.8407 20.9547 29.9842 21.1616 30.2692C21.2426 30.3772 21.2999 30.5092 21.3345 30.6653C21.3688 30.8214 21.3856 31.0239 21.3846 31.2731V32.9087C21.3822 33.1261 21.3929 33.2878 21.417 33.3938C21.4414 33.5002 21.4941 33.5699 21.5753 33.6031C21.6565 33.6367 21.7812 33.6529 21.9499 33.6521V33.8308H19.9349V33.6521C20.096 33.6529 20.2155 33.6367 20.2935 33.6031C20.3716 33.5699 20.4224 33.5002 20.446 33.3938C20.4696 33.2878 20.48 33.1261 20.4777 32.9087V31.2804C20.4792 30.8898 20.4313 30.6079 20.3336 30.4348C20.2356 30.2616 20.0782 30.1768 19.8605 30.1802C19.5991 30.1752 19.3785 30.3114 19.1988 30.5891C19.044 30.8209 18.967 31.0711 18.9683 31.3401V32.9087C18.9659 33.1261 18.9764 33.2878 19.0002 33.3938C19.0238 33.5002 19.0754 33.5699 19.1545 33.6031C19.2336 33.6367 19.3549 33.6529 19.5184 33.6521V33.8308H17.526V33.6521C17.6871 33.6529 17.8068 33.6367 17.8846 33.6031C17.9626 33.5699 18.0135 33.5002 18.037 33.3938C18.0606 33.2878 18.0711 33.1261 18.0687 32.9087V31.2731C18.0724 30.537 17.8717 30.1726 17.4665 30.1802C17.2142 30.1891 17.0028 30.3088 16.8326 30.5388C16.6623 30.7691 16.5737 31.0559 16.5669 31.3996V32.9087C16.5646 33.1285 16.5751 33.2914 16.5986 33.3973C16.6219 33.5033 16.6728 33.5725 16.7508 33.605C16.8289 33.6375 16.9483 33.6532 17.1094 33.6521V33.8308H15.0945V33.6521C15.2632 33.6532 15.3879 33.6375 15.4691 33.605C15.5503 33.5725 15.6032 33.5033 15.6273 33.3973C15.6514 33.2914 15.6621 33.1285 15.6598 32.9087V30.8419C15.6674 30.5393 15.6373 30.3434 15.5686 30.2535C15.5003 30.1639 15.3473 30.122 15.1097 30.128V29.9497L16.5593 29.853Z" fill="#3A3A3A"/>
<path d="M27.2359 30.1932V32.6765C27.2356 32.8382 27.2417 32.972 27.2535 33.0779C27.2655 33.1837 27.2844 33.273 27.3103 33.3456C27.3417 33.4286 27.3902 33.4949 27.4562 33.5444C27.522 33.5939 27.5948 33.6196 27.6744 33.6206C27.8332 33.6183 28.0066 33.5415 28.1949 33.3901L28.2989 33.5761C28.0006 33.8263 27.6608 33.9502 27.2804 33.9478C26.8702 33.9415 26.5902 33.8053 26.4403 33.5389C26.411 33.48 26.388 33.4126 26.3717 33.3372C26.3555 33.2618 26.3442 33.1599 26.3379 33.0318C26.3316 32.9034 26.3285 32.7303 26.3288 32.5128V30.1932H25.9049V29.9703C26.0668 29.964 26.2041 29.9299 26.3167 29.8679C26.4293 29.8058 26.5276 29.7086 26.6114 29.576C26.6772 29.4752 26.7314 29.3628 26.7741 29.2397C26.8165 29.1163 26.854 28.9633 26.8865 28.7805L27.2582 28.7433C27.2532 28.8418 27.249 28.9416 27.2459 29.0427C27.2425 29.1438 27.2401 29.2656 27.2385 29.4081C27.2367 29.5504 27.2359 29.733 27.2359 29.9551H28.1355V30.1932H27.2359Z" fill="#3A3A3A"/>
<path fill-rule="evenodd" clip-rule="evenodd" d="M25.9012 33.6732V33.8304C25.6836 33.8448 25.5958 33.8446 25.3671 33.8448C25.1856 33.8451 24.9978 33.8419 24.8419 33.7833C24.7455 33.7471 24.6915 33.7162 24.6198 33.6402C24.5695 33.5606 24.5375 33.5564 24.5213 33.3345C24.3295 33.5417 24.1296 33.6942 23.9222 33.7916C23.7144 33.8894 23.4902 33.9376 23.25 33.9368C22.8932 33.9328 22.6142 33.8343 22.4128 33.641C22.2111 33.4477 22.1087 33.1821 22.105 32.8436C22.1037 32.2055 22.5005 31.8089 23.2948 31.6541C23.6529 31.5847 24.0592 31.5378 24.5139 31.5129V31.0296C24.5179 30.6424 24.4767 30.3739 24.3913 30.2249C24.3059 30.0755 24.1535 30.0043 23.934 30.0111C23.7011 30.0061 23.535 30.0902 23.436 30.2639C23.3998 30.3233 23.3736 30.392 23.3569 30.4693C23.3404 30.5465 23.327 30.6539 23.3171 30.7917C23.311 30.924 23.2725 31.0181 23.2018 31.0741C23.1308 31.1302 23.0179 31.1574 22.8633 31.1561C22.5189 31.1535 22.3455 31.0395 22.3428 30.814C22.3441 30.6825 22.3848 30.557 22.4649 30.4376C22.5448 30.3181 22.658 30.2131 22.8041 30.1224C23.1138 29.9317 23.5201 29.8377 24.0233 29.84C24.5351 29.8377 24.9019 29.9391 25.1238 30.145C25.2236 30.239 25.2969 30.3592 25.3438 30.5054C25.391 30.6516 25.414 30.8386 25.4137 31.0668L25.4061 31.7135L25.3988 32.3603C25.3925 32.5722 25.3902 32.7061 25.3912 32.7619C25.3886 33.0299 25.3972 33.2258 25.4166 33.3492C25.436 33.4728 25.4575 33.5271 25.5387 33.5941C25.6807 33.6753 25.8022 33.673 25.9012 33.6732ZM24.5139 32.2563V31.6839C23.9816 31.7201 23.6042 31.8186 23.3812 31.9794C23.1583 32.1403 23.0501 32.3912 23.0567 32.7323C23.059 32.9998 23.114 33.2119 23.2212 33.3688C23.3286 33.5258 23.4745 33.6059 23.6589 33.6096C23.8103 33.608 23.9499 33.5645 24.078 33.4783C24.2061 33.3927 24.307 33.2727 24.3801 33.1189C24.428 33.0246 24.4623 32.9099 24.4833 32.7739C24.5042 32.638 24.5145 32.4656 24.5139 32.2563Z" fill="#3A3A3A"/>
<path fill-rule="evenodd" clip-rule="evenodd" d="M32.3029 33.6732V33.8304C32.0852 33.8448 31.9974 33.8451 31.7687 33.8453C31.5872 33.8456 31.3994 33.8425 31.2435 33.7838C31.1471 33.7476 31.0931 33.7167 31.0214 33.6408C30.9711 33.5611 30.9391 33.5569 30.9229 33.3351C30.7311 33.5423 30.5312 33.6947 30.3235 33.7922C30.1161 33.8899 29.8918 33.9381 29.6516 33.9373C29.2948 33.9334 29.0158 33.8349 28.8144 33.6415C28.6127 33.4482 28.5103 33.1826 28.5066 32.8442C28.5053 32.206 28.9019 31.8094 29.6964 31.6546C30.0545 31.5852 30.4608 31.5383 30.9155 31.5134V31.0301C30.9195 30.6429 30.8783 30.3744 30.7929 30.2254C30.7073 30.0761 30.5548 30.0048 30.3356 30.0116C30.1027 30.0066 29.9366 30.0907 29.8376 30.2644C29.8014 30.3239 29.775 30.3925 29.7585 30.4698C29.742 30.5471 29.7286 30.6545 29.7187 30.7923C29.7126 30.9245 29.6741 31.0186 29.6034 31.0749C29.5324 31.1307 29.4195 31.1579 29.265 31.1566C28.9205 31.154 28.7471 31.0401 28.7445 30.8145C28.7458 30.683 28.7864 30.5575 28.8665 30.4381C28.9464 30.3186 29.0596 30.2136 29.2055 30.123C29.5154 29.9323 29.9217 29.8382 30.4249 29.8406C30.9368 29.8382 31.3035 29.9396 31.5254 30.1455C31.6252 30.2395 31.6985 30.3598 31.7454 30.5059C31.7926 30.6521 31.8156 30.8391 31.8154 31.0673L31.8078 31.7141L31.8004 32.3608C31.7941 32.5728 31.7918 32.7066 31.7928 32.7624C31.7902 33.0304 31.7989 33.2263 31.8182 33.35C31.8376 33.4734 31.8591 33.5276 31.9403 33.5947C32.0823 33.6759 32.2038 33.673 32.3029 33.6732ZM30.9155 32.2568V31.6845C30.3832 31.7206 30.0055 31.8191 29.7828 31.98C29.5599 32.1408 29.4517 32.3918 29.4583 32.7328C29.4606 33.0003 29.5156 33.2125 29.6228 33.3694C29.7302 33.5263 29.8761 33.6064 30.0605 33.6101C30.2119 33.6085 30.3515 33.5651 30.4796 33.4789C30.6077 33.3929 30.7083 33.2732 30.7817 33.1192C30.8296 33.0254 30.8639 32.9104 30.8849 32.7745C30.9058 32.6388 30.9161 32.4661 30.9155 32.2568Z" fill="#3A3A3A"/>
<path d="M47.6122 24.5291L47.5975 24.8154L53.0915 31.2603L53.2888 31.2925L53.3137 31.2802L53.4101 31.1016L51.0671 23.2592L50.6695 22.9912L47.6122 24.5291Z" fill="#0097B9"/>
<path fill-rule="evenodd" clip-rule="evenodd" d="M49.2369 25.1286L53.2998 31.3097L53.0837 31.2744L47.5826 24.8127L49.2369 25.1286Z" fill="#005874"/>
<path d="M50.6752 22.9843L51.0716 23.2533L49.8406 24.89L49.269 24.6401L50.6752 22.9843Z" fill="#2FB8E7"/>
<path d="M49.2687 24.6399L49.2368 25.1287L47.5828 24.8128L47.6001 24.5286L49.2687 24.6399Z" fill="#007592"/>
<path d="M49.8406 24.8902L51.0741 23.2509L53.4467 31.0999L53.3259 31.3029L49.8406 24.8902Z" fill="#007592"/>
<path d="M56.4288 22.8358L59.9812 24.4691L59.9877 24.9299L54.1579 33.7607L53.8917 33.8309L53.8524 33.8128L53.7694 33.6137L56.1192 23.008L56.4288 22.8358Z" fill="#80B13A"/>
<path d="M60 24.9288L54.1749 33.7787L53.8771 33.8654L57.6212 25.1313L60 24.9288Z" fill="#6E9123"/>
<path d="M56.9503 24.7624L53.8435 33.8381L53.756 33.6154L56.1149 22.9989L56.9503 24.7624Z" fill="#3F7937"/>
<path d="M59.9906 24.469L60 24.9287L57.6212 25.1315L57.4871 24.5015L59.9906 24.469Z" fill="#A5C550"/>
<path d="M57.4871 24.5014L56.9501 24.7618L56.1145 22.9981L56.4215 22.8249L57.4871 24.5014Z" fill="#5D8B27"/>
<path d="M51.0024 20.3232L51.1439 20.0508L55.692 20.0015L55.9859 20.3067L53.8069 27.5867L53.6689 27.6669L53.6644 27.6666L53.5151 27.566L51.0024 20.3232Z" fill="#D81936"/>
<path d="M53.0921 20.8129L52.7644 21.2L50.9871 20.3149L51.1306 20.0456L53.0921 20.8129Z" fill="#AF2C35"/>
<path d="M50.9868 20.3149L52.7644 21.2L53.6656 27.6816L53.5079 27.5742L50.9868 20.3149Z" fill="#762624"/>
<path d="M53.6195 21.201L55.9939 20.3035L53.8181 27.5966L53.6688 27.6815L53.6195 21.201Z" fill="#B22B37"/>
<path d="M53.0924 20.8128L53.6195 21.2011L55.9941 20.3036L55.6968 20L53.0924 20.8128Z" fill="#DC505E"/>
</svg>
